<svg width="152" height="24" viewBox="0 0 152 24" fill="none" xmlns="http://www.w3.org/2000/svg">
<path d="M8.48973 24C7.33988 24 6.24752 23.8719 5.21266 23.6157C4.19057 23.3452 3.28985 22.8897 2.51051 22.2491C1.74394 21.6085 1.13069 20.7544 0.670746 19.6868C0.223582 18.6192 0 17.2811 0 15.6726C0 14.0783 0.185254 12.7331 0.555761 11.637C0.939045 10.5267 1.48842 9.62989 2.20388 8.94662C2.93212 8.26334 3.82006 7.77224 4.8677 7.47331C5.92812 7.16014 7.13546 7.00356 8.48973 7.00356C9.844 7.00356 11.0066 7.09608 11.9776 7.28114C12.9486 7.45196 13.7663 7.6726 14.4306 7.94306C15.1078 8.21352 15.6571 8.51245 16.0787 8.83986C16.5131 9.15302 16.8581 9.44484 17.1136 9.7153V1.51601C17.1136 1.33096 17.1136 1.14591 17.1136 0.960854C17.1264 0.775801 17.1583 0.6121 17.2094 0.469751C17.2605 0.327402 17.3308 0.213523 17.4202 0.128114C17.5224 0.0427046 17.6694 0 17.861 0C18.0527 0 18.1996 0.0427046 18.3018 0.128114C18.404 0.199288 18.4807 0.298932 18.5318 0.427046C18.5829 0.55516 18.6148 0.711744 18.6276 0.896797C18.6404 1.06762 18.6467 1.25979 18.6467 1.47331V22.6334C18.6467 23.089 18.5637 23.395 18.3976 23.5516C18.2443 23.7082 18.0782 23.7865 17.8993 23.7865C17.6821 23.7865 17.4969 23.7153 17.3436 23.573C17.1903 23.4306 17.1136 23.1317 17.1136 22.6762V19.7082C16.9731 20.3203 16.7239 20.8541 16.3662 21.3096C16.0085 21.7509 15.5805 22.1281 15.0822 22.4413C14.5967 22.7544 14.0601 23.0178 13.4724 23.2313C12.8847 23.4306 12.2906 23.5872 11.6901 23.7011C11.1024 23.8149 10.5275 23.8932 9.96537 23.9359C9.416 23.9786 8.92412 24 8.48973 24ZM8.48973 22.7402C9.2563 22.726 10.0931 22.6619 11.0002 22.548C11.9073 22.4199 12.7761 22.1993 13.6066 21.8861C14.437 21.573 15.1716 21.1388 15.8104 20.5836C16.4492 20.0285 16.8836 19.3025 17.1136 18.4057V10.7189C16.8198 10.4626 16.4429 10.1922 15.9829 9.90747C15.5358 9.62278 14.9672 9.35943 14.2773 9.11744C13.6002 8.86121 12.7825 8.6548 11.8243 8.49822C10.8789 8.34164 9.76734 8.26334 8.48973 8.26334C7.26322 8.26334 6.20919 8.40569 5.32764 8.69039C4.45886 8.97509 3.73701 9.42349 3.16209 10.0356C2.59994 10.6335 2.18472 11.4021 1.91642 12.3416C1.6609 13.2669 1.53313 14.3772 1.53313 15.6726C1.53313 17.0249 1.712 18.1566 2.06973 19.0676C2.44024 19.9644 2.93851 20.6833 3.56454 21.2242C4.19057 21.7651 4.92519 22.1566 5.76842 22.3986C6.62442 22.6263 7.53152 22.7402 8.48973 22.7402Z" fill="#3B0273"/>
<path d="M33.2115 8.26334C32.0233 8.26334 30.9693 8.37722 30.0494 8.60498C29.1295 8.83274 28.3438 9.20285 27.6922 9.7153C27.0534 10.2135 26.5552 10.8612 26.1974 11.6584C25.8397 12.4555 25.6353 13.4306 25.5842 14.5836H40.034V13.4306C40.034 12.7189 39.9126 12.0498 39.6698 11.4235C39.4399 10.7972 39.0566 10.2491 38.52 9.77936C37.9834 9.30961 37.2807 8.9395 36.4119 8.66904C35.5432 8.39858 34.4764 8.26334 33.2115 8.26334ZM32.215 22.7402C33.4287 22.7402 34.4891 22.6548 35.3962 22.484C36.3033 22.3132 37.0827 22.1068 37.7343 21.8648C38.3858 21.6228 38.916 21.3737 39.3249 21.1174C39.7465 20.8612 40.0723 20.6477 40.3023 20.4769C40.3789 20.4484 40.43 20.4342 40.4556 20.4342C40.5961 20.4342 40.7239 20.5125 40.8389 20.669C40.9666 20.8114 41.0305 20.968 41.0305 21.1388C41.0305 21.2954 40.9666 21.4235 40.8389 21.5231C40.7239 21.6512 40.4747 21.8505 40.0915 22.121C39.7209 22.3915 39.1843 22.669 38.4817 22.9537C37.779 23.2242 36.9102 23.4662 35.8753 23.6797C34.8405 23.8932 33.614 24 32.1958 24C30.7138 24 29.4553 23.7936 28.4205 23.3808C27.3856 22.968 26.5424 22.3915 25.8908 21.6512C25.2392 20.911 24.7665 20.0214 24.4727 18.9822C24.1788 17.9431 24.0319 16.8043 24.0319 15.5658C24.0319 13.9146 24.2682 12.5409 24.7409 11.4448C25.2137 10.3488 25.8589 9.47331 26.6765 8.8185C27.507 8.14947 28.478 7.67972 29.5895 7.40925C30.7138 7.13879 31.9211 7.00356 33.2115 7.00356C35.8689 7.00356 37.8556 7.57295 39.1716 8.71174C40.5003 9.8363 41.1646 11.452 41.1646 13.5587C41.1646 13.758 41.1519 13.9786 41.1263 14.2206C41.1008 14.4626 41.0624 14.6975 41.0113 14.9253C40.973 15.1388 40.9219 15.3238 40.858 15.4804C40.8069 15.6228 40.7558 15.6939 40.7047 15.6939H35.0704L25.565 15.4804C25.5906 16.8043 25.7439 17.9288 26.025 18.8541C26.3188 19.7651 26.7404 20.5125 27.2898 21.0961C27.8519 21.6655 28.5418 22.0854 29.3595 22.3559C30.1772 22.6121 31.129 22.7402 32.215 22.7402Z" fill="#3B0273"/>
<path d="M52.759 24C52.4651 24 52.2479 23.9004 52.1074 23.7011C51.9669 23.5018 51.8583 23.3238 51.7816 23.1673L44.3076 8.94662C44.2309 8.80427 44.1798 8.67616 44.1543 8.56228C44.1287 8.43416 44.1159 8.31317 44.1159 8.19929C44.1159 7.95729 44.1798 7.77224 44.3076 7.64413C44.4353 7.50178 44.5886 7.4306 44.7675 7.4306C44.908 7.4306 45.055 7.48754 45.2083 7.60142C45.3616 7.70107 45.4957 7.86477 45.6107 8.09253L52.759 22.2278L59.9072 8.09253C60.0222 7.86477 60.1563 7.70107 60.3097 7.60142C60.463 7.48754 60.6099 7.4306 60.7504 7.4306C60.9293 7.4306 61.0826 7.50178 61.2104 7.64413C61.3381 7.77224 61.402 7.95729 61.402 8.19929C61.402 8.42705 61.3381 8.67616 61.2104 8.94662L53.7363 23.1673C53.6469 23.3238 53.5255 23.5018 53.3722 23.7011C53.2189 23.9004 53.0145 24 52.759 24Z" fill="#3B0273"/>
<path d="M75.7751 7.00356C76.925 7.00356 78.011 7.13879 79.0331 7.40925C80.0679 7.66548 80.9686 8.11388 81.7352 8.75445C82.5145 9.39502 83.1278 10.2491 83.575 11.3167C84.0349 12.3843 84.2649 13.7224 84.2649 15.331C84.2649 16.9253 84.0732 18.2776 83.6899 19.3879C83.3194 20.484 82.7701 21.3737 82.0418 22.0569C81.3264 22.7402 80.4384 23.2384 79.378 23.5516C78.3304 23.8505 77.1294 24 75.7751 24C74.7403 24 73.7885 23.9288 72.9197 23.7865C72.0509 23.6441 71.2588 23.4662 70.5433 23.2527C69.8406 23.0249 69.2082 22.7758 68.6461 22.5053C68.0839 22.2349 67.5857 21.9715 67.1513 21.7153V22.2278C67.1513 22.4413 67.1449 22.6406 67.1321 22.8256C67.1193 23.0107 67.0874 23.1744 67.0363 23.3167C66.9852 23.4591 66.9085 23.573 66.8063 23.6584C66.7041 23.7438 66.5572 23.7865 66.3655 23.7865C66.1739 23.7865 66.027 23.7438 65.9248 23.6584C65.8353 23.573 65.7651 23.4591 65.714 23.3167C65.6629 23.1744 65.6309 23.0107 65.6181 22.8256C65.6181 22.6406 65.6181 22.4413 65.6181 22.2278V1.04626C65.6181 0.590747 65.7012 0.30605 65.8673 0.192171C66.0461 0.0640569 66.2314 0 66.423 0C66.6147 0 66.7808 0.0640569 66.9213 0.192171C67.0746 0.30605 67.1513 0.590747 67.1513 1.04626V11.2527C67.2918 10.6548 67.5409 10.1352 67.8987 9.69395C68.2564 9.23843 68.678 8.85409 69.1635 8.54092C69.6618 8.22776 70.2048 7.97153 70.7925 7.77224C71.3802 7.57295 71.9679 7.41637 72.5556 7.30249C73.156 7.18861 73.731 7.11032 74.2803 7.06762C74.8425 7.02491 75.3408 7.00356 75.7751 7.00356ZM75.7751 8.26334C75.0086 8.27758 74.1717 8.34875 73.2646 8.47687C72.3575 8.59075 71.4888 8.80427 70.6583 9.11744C69.8279 9.4306 69.0932 9.86477 68.4544 10.4199C67.8156 10.9751 67.3812 11.7011 67.1513 12.5979V20.7971C67.7006 21.0249 68.2883 21.2598 68.9144 21.5018C69.5532 21.7295 70.2303 21.9359 70.9458 22.121C71.6612 22.306 72.4214 22.4555 73.2263 22.5694C74.0312 22.6833 74.8808 22.7402 75.7751 22.7402C77.0017 22.7402 78.0493 22.5979 78.9181 22.3132C79.7996 22.0285 80.5215 21.5872 81.0836 20.9893C81.6585 20.3772 82.0738 19.6085 82.3293 18.6833C82.5976 17.7438 82.7318 16.6263 82.7318 15.331C82.7318 13.9929 82.5465 12.8683 82.176 11.9573C81.8183 11.0463 81.3264 10.3203 80.7003 9.77936C80.0743 9.23843 79.3333 8.85409 78.4773 8.62633C77.6341 8.38434 76.7334 8.26334 75.7751 8.26334Z" fill="#8507D9"/>
<path d="M98.523 24C96.7599 24 95.2715 23.8078 94.0578 23.4235C92.844 23.0249 91.8603 22.4626 91.1065 21.7367C90.3655 21.0107 89.8289 20.1281 89.4967 19.089C89.1645 18.0498 88.9984 16.8754 88.9984 15.5658C88.9984 14.0569 89.1837 12.7687 89.5542 11.7011C89.9375 10.6192 90.5188 9.72954 91.2981 9.03203C92.0902 8.33452 93.0804 7.82206 94.2686 7.49466C95.4695 7.16726 96.8877 7.00356 98.523 7.00356C100.158 7.00356 101.57 7.16726 102.758 7.49466C103.959 7.82206 104.949 8.33452 105.729 9.03203C106.521 9.72954 107.102 10.6192 107.473 11.7011C107.856 12.7687 108.048 14.0569 108.048 15.5658C108.048 16.8754 107.882 18.0498 107.549 19.089C107.217 20.1281 106.674 21.0107 105.92 21.7367C105.179 22.4626 104.202 23.0249 102.988 23.4235C101.775 23.8078 100.286 24 98.523 24ZM98.523 22.7402C99.6857 22.7402 100.689 22.6477 101.532 22.4626C102.375 22.2633 103.09 21.9929 103.678 21.6512C104.279 21.3096 104.758 20.911 105.116 20.4555C105.486 20 105.773 19.5089 105.978 18.9822C106.195 18.4413 106.336 17.8861 106.4 17.3167C106.476 16.7331 106.514 16.1495 106.514 15.5658C106.514 14.242 106.361 13.1174 106.055 12.1922C105.748 11.2669 105.269 10.5125 104.617 9.92883C103.966 9.3452 103.135 8.92527 102.126 8.66904C101.117 8.39858 99.9156 8.26334 98.523 8.26334C97.1177 8.26334 95.9103 8.39858 94.901 8.66904C93.9045 8.92527 93.0804 9.3452 92.4288 9.92883C91.7772 10.5125 91.2981 11.2669 90.9915 12.1922C90.6849 13.1174 90.5316 14.242 90.5316 15.5658C90.5316 16.1495 90.5635 16.7331 90.6274 17.3167C90.704 17.8861 90.8446 18.4413 91.049 18.9822C91.2662 19.5089 91.5537 20 91.9114 20.4555C92.2819 20.911 92.761 21.3096 93.3487 21.6512C93.9492 21.9929 94.671 22.2633 95.5142 22.4626C96.3575 22.6477 97.3604 22.7402 98.523 22.7402Z" fill="#8507D9"/>
<path d="M122.287 24C120.523 24 119.035 23.8078 117.821 23.4235C116.608 23.0249 115.624 22.4626 114.87 21.7367C114.129 21.0107 113.592 20.1281 113.26 19.089C112.928 18.0498 112.762 16.8754 112.762 15.5658C112.762 14.0569 112.947 12.7687 113.318 11.7011C113.701 10.6192 114.282 9.72954 115.062 9.03203C115.854 8.33452 116.844 7.82206 118.032 7.49466C119.233 7.16726 120.651 7.00356 122.287 7.00356C123.922 7.00356 125.334 7.16726 126.522 7.49466C127.723 7.82206 128.713 8.33452 129.492 9.03203C130.284 9.72954 130.866 10.6192 131.236 11.7011C131.62 12.7687 131.811 14.0569 131.811 15.5658C131.811 16.8754 131.645 18.0498 131.313 19.089C130.981 20.1281 130.438 21.0107 129.684 21.7367C128.943 22.4626 127.966 23.0249 126.752 23.4235C125.538 23.8078 124.05 24 122.287 24ZM122.287 22.7402C123.449 22.7402 124.452 22.6477 125.295 22.4626C126.139 22.2633 126.854 21.9929 127.442 21.6512C128.042 21.3096 128.521 20.911 128.879 20.4555C129.25 20 129.537 19.5089 129.741 18.9822C129.959 18.4413 130.099 17.8861 130.163 17.3167C130.24 16.7331 130.278 16.1495 130.278 15.5658C130.278 14.242 130.125 13.1174 129.818 12.1922C129.511 11.2669 129.032 10.5125 128.381 9.92883C127.729 9.3452 126.899 8.92527 125.889 8.66904C124.88 8.39858 123.679 8.26334 122.287 8.26334C120.881 8.26334 119.674 8.39858 118.665 8.66904C117.668 8.92527 116.844 9.3452 116.192 9.92883C115.541 10.5125 115.062 11.2669 114.755 12.1922C114.448 13.1174 114.295 14.242 114.295 15.5658C114.295 16.1495 114.327 16.7331 114.391 17.3167C114.468 17.8861 114.608 18.4413 114.813 18.9822C115.03 19.5089 115.317 20 115.675 20.4555C116.045 20.911 116.525 21.3096 117.112 21.6512C117.713 21.9929 118.435 22.2633 119.278 22.4626C120.121 22.6477 121.124 22.7402 122.287 22.7402Z" fill="#8507D9"/>
<path d="M151.493 22.5267C151.582 22.6263 151.64 22.726 151.665 22.8256C151.691 22.9253 151.716 23.032 151.742 23.1459C151.742 23.3452 151.678 23.5018 151.55 23.6157C151.435 23.7295 151.276 23.7865 151.071 23.7865C150.969 23.8007 150.867 23.7794 150.765 23.7224C150.675 23.6512 150.579 23.5587 150.477 23.4448L141.681 14.605L138.768 16.4199V22.847C138.768 23.1744 138.685 23.4164 138.519 23.573C138.353 23.7153 138.18 23.7865 138.001 23.7865C137.835 23.7865 137.663 23.7153 137.484 23.573C137.318 23.4164 137.235 23.1744 137.235 22.847V0.939502C137.235 0.654804 137.324 0.441281 137.503 0.298932C137.695 0.156584 137.873 0.0854093 138.04 0.0854093C138.218 0.0854093 138.385 0.156584 138.538 0.298932C138.691 0.441281 138.768 0.654804 138.768 0.939502V15.032L150.765 7.25979C150.841 7.21708 150.924 7.19573 151.014 7.19573C151.18 7.19573 151.314 7.2669 151.416 7.40925C151.531 7.5516 151.589 7.70107 151.589 7.85765C151.589 8.0427 151.48 8.21352 151.263 8.37011L142.85 13.9431L151.493 22.5267Z" fill="#8507D9"/>
</svg>
