<svg width="27" height="21" fill="none" xmlns="http://www.w3.org/2000/svg"><path d="M22.049 13.92c1.465.736 2.721 1.917 3.638 3.394.182.292.273.439.304.641.064.412-.218.918-.601 1.08-.189.08-.4.08-.825.08m-4.53-9.528a4.529 4.529 0 000-8.116m-2.012 4.058a4.529 4.529 0 11-9.058 0 4.529 4.529 0 019.058 0zM6.509 17.04c1.604-2.41 4.136-3.964 6.985-3.964s5.38 1.555 6.985 3.964c.352.528.528.791.508 1.129a1.116 1.116 0 01-.398.742c-.27.204-.64.204-1.38.204H7.778c-.74 0-1.11 0-1.38-.204a1.116 1.116 0 01-.397-.742c-.02-.338.155-.601.507-1.13z" stroke="#8507D9" stroke-width="2" stroke-linecap="round" stroke-linejoin="round"/><path d="M4.951 13.92c-1.465.736-2.721 1.917-3.638 3.394-.182.292-.273.439-.304.641-.064.412.218.918.601 1.08.189.08.4.08.825.08m4.53-9.528a4.529 4.529 0 010-8.116m2.012 4.058a4.529 4.529 0 109.058 0 4.529 4.529 0 00-9.058 0zM20.491 17.04c-1.604-2.41-4.136-3.964-6.985-3.964s-5.38 1.555-6.985 3.964c-.352.528-.528.791-.507 1.129.015.262.187.583.397.742.27.204.64.204 1.38.204h11.43c.74 0 1.11 0 1.38-.204.21-.159.382-.48.397-.742.02-.338-.155-.601-.507-1.13z" stroke="#8507D9" stroke-width="2" stroke-linecap="round" stroke-linejoin="round"/></svg>