<svg width="20" height="20" fill="none" xmlns="http://www.w3.org/2000/svg"><path fill-rule="evenodd" clip-rule="evenodd" d="M4.055 0h11.89c.543 0 1 0 1.374.03.39.032.763.102 1.117.282.539.275.977.713 1.252 1.252.18.354.25.726.282 1.117.03.374.03.83.03 1.374v11.89c0 .543 0 1-.03 1.374-.032.39-.102.763-.282 1.117a2.864 2.864 0 01-1.252 1.252c-.354.18-.726.25-1.117.282-.374.03-.83.03-1.374.03H4.055c-.543 0-1 0-1.374-.03-.39-.032-.763-.102-1.117-.282a2.864 2.864 0 01-1.252-1.252c-.18-.354-.25-.726-.281-1.117C0 16.945 0 16.489 0 15.945V4.055c0-.543 0-1 .03-1.374.032-.39.102-.763.282-1.117A2.864 2.864 0 011.564.312c.354-.18.726-.25 1.117-.281C3.055 0 3.511 0 4.055 0zM1.65 8.082v7.83c0 .585.001.974.025 1.272.024.289.066.42.108.502.116.229.301.414.53.53.082.042.213.084.502.108.298.024.687.025 1.272.025h2.028v-4.707c0-.262 0-.505.017-.709.018-.221.06-.468.184-.713.177-.347.46-.629.807-.806.244-.125.491-.166.712-.184.204-.017.448-.017.709-.017h2.91c.261 0 .505 0 .709.017.22.018.468.06.712.184.348.177.63.46.807.806.124.245.166.492.184.713.017.204.017.447.017.709v4.707h2.028c.585 0 .974-.001 1.272-.025.289-.024.42-.066.502-.108.229-.116.414-.302.53-.53.042-.082.084-.213.108-.502.024-.298.025-.687.025-1.272v-7.83a3.866 3.866 0 01-2.233.705 3.877 3.877 0 01-3.058-1.49A3.877 3.877 0 0110 8.788a3.877 3.877 0 01-3.058-1.49 3.877 3.877 0 01-3.058 1.49 3.871 3.871 0 01-2.233-.705zm6.117-3.179a2.232 2.232 0 004.464 0 .826.826 0 011.652 0 2.232 2.232 0 004.465 0v-.815c0-.585-.001-.974-.025-1.272-.024-.289-.066-.42-.108-.502a1.213 1.213 0 00-.53-.53c-.082-.042-.213-.084-.502-.108-.298-.024-.687-.025-1.272-.025H4.088c-.585 0-.974.001-1.272.025-.289.024-.42.066-.502.108a1.213 1.213 0 00-.53.53c-.042.082-.084.213-.108.502-.024.298-.025.687-.025 1.272v.815a2.232 2.232 0 104.465 0 .826.826 0 011.652 0zm4.464 13.446v-4.68c0-.298 0-.473-.01-.602a.716.716 0 00-.015-.105.194.194 0 00-.073-.072.729.729 0 00-.105-.014 8.455 8.455 0 00-.602-.012H8.573c-.3 0-.474.001-.602.012a.727.727 0 00-.105.014.194.194 0 00-.073.072.72.72 0 00-.014.105c-.01.129-.011.304-.011.603v4.679h4.464zm-.092-5.458h-.001z" fill="#8507D9"/></svg>