<svg width="20" height="20" fill="none" xmlns="http://www.w3.org/2000/svg"><path fill-rule="evenodd" clip-rule="evenodd" d="M15.938 4.799A7.892 7.892 0 002.154 9.167a1.052 1.052 0 11-2.092-.223A9.98 9.98 0 015.004 1.34c4.343-2.507 9.785-1.384 12.814 2.428l.114-.426a1.052 1.052 0 012.032.544l-.77 2.874c-.15.561-.727.894-1.288.744l-2.874-.77a1.052 1.052 0 01.544-2.032l.362.097zM10 4.209c.58 0 1.052.471 1.052 1.052v4.138l2.119 1.271a1.052 1.052 0 01-1.082 1.804l-2.63-1.578a1.052 1.052 0 01-.51-.902V5.261c0-.58.47-1.052 1.051-1.052zm9.003 5.679c.578.061.997.58.935 1.157a9.981 9.981 0 01-4.942 7.604c-4.343 2.507-9.785 1.384-12.814-2.428l-.114.426a1.052 1.052 0 01-2.032-.544l.77-2.874c.15-.561.727-.894 1.288-.744l2.874.77a1.052 1.052 0 11-.544 2.032l-.362-.097a7.892 7.892 0 0013.784-4.368c.062-.577.58-.996 1.157-.934z" fill="#8507D9"/></svg>