<svg width="18" height="22" fill="none" xmlns="http://www.w3.org/2000/svg"><path fill-rule="evenodd" clip-rule="evenodd" d="M4.568 0h8.864c.252 0 .498 0 .706.017.229.019.499.063.77.201a2 2 0 01.874.874c.138.271.182.541.201.77.017.208.017.454.017.706v4.61c.122.04.243.088.362.149a3 3 0 011.311 1.311c.193.378.264.772.296 1.167.031.375.031.83.031 1.356v5.08c0 .805 0 1.47-.044 2.01-.046.563-.145 1.08-.392 1.565a4 4 0 01-1.748 1.748c-.485.247-1.002.346-1.564.392-.541.044-1.206.044-2.01.044H5.758c-.805 0-1.47 0-2.01-.044-.563-.046-1.08-.145-1.565-.392a4 4 0 01-1.748-1.748c-.247-.485-.346-1.002-.392-1.564C0 17.71 0 17.046 0 16.242v-5.08c0-.528 0-.982.03-1.357.033-.395.104-.789.297-1.167a3 3 0 011.311-1.311c.12-.06.24-.11.362-.149v-4.61c0-.252 0-.498.017-.706a2.03 2.03 0 01.201-.77 2 2 0 01.874-.874 2.03 2.03 0 01.77-.201C4.07 0 4.316 0 4.568 0zM4 7h10V2.6c0-.297 0-.459-.01-.575l-.001-.014A8.187 8.187 0 0013.4 2H4.6a8.185 8.185 0 00-.589.011v.014C4 2.14 4 2.303 4 2.6V7zm3-4a1 1 0 011 1v1a1 1 0 11-2 0V4a1 1 0 011-1zm4 0a1 1 0 011 1v1a1 1 0 11-2 0V4a1 1 0 011-1zM4.2 9c-.577 0-.949 0-1.232.024-.272.022-.373.06-.422.085a1 1 0 00-.437.437c-.025.05-.063.15-.085.422C2 10.25 2 10.623 2 11.2v5c0 .857 0 1.439.038 1.889.035.438.1.663.18.819a2 2 0 00.874.874c.156.08.38.145.819.18C4.361 20 4.943 20 5.8 20h6.4c.857 0 1.439 0 1.889-.038.438-.035.663-.1.819-.18a2 2 0 00.874-.874c.08-.156.145-.38.18-.819.037-.45.038-1.032.038-1.889v-5c0-.576 0-.949-.024-1.232-.022-.272-.06-.373-.085-.422a1 1 0 00-.437-.437c-.05-.025-.15-.063-.422-.085C14.75 9 14.377 9 13.8 9H4.2z" fill="#8507D9"/></svg>