<svg width="14" height="13" fill="none" xmlns="http://www.w3.org/2000/svg"><path fill-rule="evenodd" clip-rule="evenodd" d="M0 .7A.7.7 0 01.7 0h12.6a.7.7 0 110 1.4H.7A.7.7 0 010 .7zm1.798 2.1h3.404c.177 0 .35 0 .495.012.16.013.349.044.539.14a1.4 1.4 0 01.611.612c.097.19.128.38.141.54C7 4.248 7 4.42 7 4.597v3.404c0 .177 0 .349-.012.495-.013.16-.044.349-.14.539a1.4 1.4 0 01-.612.611c-.19.097-.38.128-.54.141-.145.012-.317.012-.494.012H1.798c-.177 0-.349 0-.495-.012a1.415 1.415 0 01-.539-.14 1.4 1.4 0 01-.611-.612 1.415 1.415 0 01-.141-.54C0 8.352 0 8.18 0 8.003V4.598c0-.177 0-.35.012-.495.013-.16.044-.349.14-.539a1.4 1.4 0 01.612-.611c.19-.097.38-.128.54-.141.145-.012.317-.012.494-.012zm-.39 1.408v.01a5.729 5.729 0 00-.008.402v3.36a5.728 5.728 0 00.008.412h.01c.08.007.194.008.402.008h3.36a5.737 5.737 0 00.412-.008v-.01A5.73 5.73 0 005.6 7.98V4.62a5.73 5.73 0 00-.008-.412h-.01A5.73 5.73 0 005.18 4.2H1.82a5.73 5.73 0 00-.412.008zm6.992.167a.7.7 0 01.7-.7h4.2a.7.7 0 110 1.4H9.1a.7.7 0 01-.7-.7zm0 3.85a.7.7 0 01.7-.7h4.2a.7.7 0 110 1.4H9.1a.7.7 0 01-.7-.7zM0 11.9a.7.7 0 01.7-.7h12.6a.7.7 0 110 1.4H.7a.7.7 0 01-.7-.7z" fill="#8507D9"/></svg>