<svg width="16" height="14" fill="none" xmlns="http://www.w3.org/2000/svg"><path fill-rule="evenodd" clip-rule="evenodd" d="M1.185 7a7 7 0 114.484 6.534 7.48 7.48 0 00-.147-.054 5.083 5.083 0 00-.116.011l-3.773.39-.025.003a5.361 5.361 0 01-.46.035 1.143 1.143 0 01-.62-.15 1.105 1.105 0 01-.517-.773 1.144 1.144 0 01.099-.63c.054-.127.132-.273.208-.412L1.535 9.7a5.63 5.63 0 00.103-.195A6.993 6.993 0 011.185 7zm7-5.526a5.526 5.526 0 00-5.238 7.292l.018.054c.06.176.13.382.145.57.013.17 0 .313-.041.479-.046.181-.14.353-.216.493l-.021.04-1.073 1.985 3.496-.362.024-.002c.088-.01.197-.02.303-.017.098.004.18.015.275.037a2.4 2.4 0 01.342.116A5.526 5.526 0 108.185 1.474zm0 1.842c.407 0 .737.33.737.737v2.579a.737.737 0 11-1.474 0v-2.58c0-.406.33-.736.737-.736zM7.448 9.21c0-.407.33-.737.737-.737h.007a.737.737 0 010 1.473h-.007a.737.737 0 01-.737-.736z" fill="#8507D9"/></svg>