<svg width="14" height="14" fill="none" xmlns="http://www.w3.org/2000/svg"><path fill-rule="evenodd" clip-rule="evenodd" d="M7 1.273a5.727 5.727 0 100 11.454A5.727 5.727 0 007 1.273zM0 7a7 7 0 1114 0A7 7 0 010 7zm7.164-2.53a1.273 1.273 0 00-1.416.832.636.636 0 01-1.2-.422 2.545 2.545 0 014.947.848c0 .974-.723 1.617-1.238 1.96a5.12 5.12 0 01-1.073.54l-.022.008-.007.003h-.003s-.002.001-.203-.603l.201.604a.636.636 0 01-.402-1.207l.01-.004.047-.017a3.85 3.85 0 00.746-.382c.438-.293.67-.604.67-.903A1.273 1.273 0 007.165 4.47zm-.8 5.712c0-.352.285-.637.636-.637h.006a.636.636 0 110 1.273H7a.636.636 0 01-.636-.636z" fill="#8507D9"/></svg>