<svg width="14" height="14" fill="none" xmlns="http://www.w3.org/2000/svg"><path fill-rule="evenodd" clip-rule="evenodd" d="M1.156 5.535a6.036 6.036 0 000 2.93H4.04a10.452 10.452 0 01-.133-1.475c.01-.49.055-.976.133-1.455H1.156zm.336-.977h2.754a10.452 10.452 0 011.644-3.48 6.033 6.033 0 00-4.398 3.48zM7 1.236a9.474 9.474 0 00-1.74 3.322h3.48A9.475 9.475 0 007 1.236zm1.97 4.299H5.03c-.086.481-.135.97-.146 1.465.01.494.06.984.146 1.465h3.94c.086-.481.135-.97.146-1.465a9.474 9.474 0 00-.146-1.465zm.99 2.93a10.455 10.455 0 00.133-1.475c-.01-.49-.055-.976-.133-1.455h2.884a6.037 6.037 0 010 2.93H9.96zm-1.22.977H5.26A9.474 9.474 0 007 12.764a9.474 9.474 0 001.74-3.322zm-2.85 3.48a10.453 10.453 0 01-1.644-3.48H1.492a6.033 6.033 0 004.398 3.48zm2.22 0a10.453 10.453 0 001.644-3.48h2.754a6.033 6.033 0 01-4.398 3.48zm4.398-8.364H9.754a10.452 10.452 0 00-1.644-3.48 6.033 6.033 0 014.398 3.48zM0 7a7 7 0 1114 0A7 7 0 010 7z" fill="#8507D9"/></svg>