<svg width="14" height="14" fill="none" xmlns="http://www.w3.org/2000/svg"><path fill-rule="evenodd" clip-rule="evenodd" d="M4.031 0H4.9a.7.7 0 110 1.4h-.84c-.6 0-1.007 0-1.322.026-.307.025-.464.07-.574.127a1.4 1.4 0 00-.611.611c-.056.11-.102.267-.127.574-.025.315-.026.722-.026 1.322v5.88c0 .6 0 1.007.026 1.322.025.307.07.464.127.574a1.4 1.4 0 00.611.611c.11.056.267.102.574.127.315.026.722.026 1.322.026h.84a.7.7 0 110 1.4h-.869c-.563 0-1.028 0-1.407-.03-.394-.033-.755-.102-1.095-.275A2.8 2.8 0 01.305 12.47c-.173-.34-.242-.701-.274-1.095C0 10.997 0 10.532 0 9.97V4.03c0-.563 0-1.028.03-1.407.033-.394.102-.755.275-1.095A2.8 2.8 0 011.53.305c.34-.173.701-.242 1.095-.274C3.003 0 3.468 0 4.03 0zm5.274 3.005a.7.7 0 01.99 0l3.5 3.5a.7.7 0 010 .99l-3.5 3.5a.7.7 0 01-.99-.99L11.61 7.7H4.9a.7.7 0 110-1.4h6.71L9.305 3.995a.7.7 0 010-.99z" fill="#8507D9"/></svg>