<svg width="12" height="14" fill="none" xmlns="http://www.w3.org/2000/svg"><path fill-rule="evenodd" clip-rule="evenodd" d="M5.598.013c.122-.017.246-.017.367 0 .14.02.272.07.375.11.01.003.02.006.028.01l3.444 1.291.084.032c.397.148.746.278 1.014.514.235.207.416.468.527.76.127.335.127.707.126 1.13v3.163c0 1.815-.987 3.33-2.055 4.441-1.075 1.12-2.304 1.91-2.954 2.29l-.027.015c-.118.07-.272.16-.476.204a1.369 1.369 0 01-.539 0 1.556 1.556 0 01-.476-.204l-.026-.015c-.65-.38-1.88-1.17-2.955-2.29C.988 10.352 0 8.838 0 7.023V3.86c0-.422 0-.794.126-1.13.111-.292.292-.553.527-.76.269-.236.617-.366 1.014-.514l.084-.032L5.195.133l.028-.01a1.79 1.79 0 01.375-.11zm.182 1.274a3.909 3.909 0 00-.134.049L2.202 2.627c-.53.199-.632.248-.7.307a.642.642 0 00-.175.254c-.032.084-.042.196-.042.762v3.073c0 1.337.732 2.546 1.697 3.552.958.998 2.074 1.719 2.675 2.07a6.509 6.509 0 00.125.07l.038-.02.086-.05c.602-.351 1.717-1.072 2.675-2.07.965-1.006 1.697-2.215 1.697-3.552V3.95c0-.566-.01-.678-.042-.762a.642.642 0 00-.175-.254c-.067-.059-.17-.108-.7-.307L5.917 1.336a3.903 3.903 0 00-.133-.05H5.78zM8.484 4.64a.643.643 0 010 .909l-2.89 2.89a.642.642 0 01-.909 0L3.4 7.156a.642.642 0 11.909-.909l.83.83 2.437-2.436c.25-.25.657-.25.908 0z" fill="#8507D9"/></svg>