<svg width="15" height="16" fill="none" xmlns="http://www.w3.org/2000/svg"><path d="M7.343 10.1a2.1 2.1 0 100-4.2 2.1 2.1 0 000 4.2z" stroke="#8507D9" stroke-width="1.5" stroke-linecap="round" stroke-linejoin="round"/><path d="M5.445 13.16l.41.92a1.548 1.548 0 002.83 0l.41-.92a1.698 1.698 0 011.728-.997l1.001.107a1.549 1.549 0 001.416-2.452l-.593-.814A1.7 1.7 0 0112.325 8c0-.36.114-.71.325-1l.593-.815a1.548 1.548 0 00-1.415-2.451l-1.002.106a1.698 1.698 0 01-1.729-1l-.412-.92a1.549 1.549 0 00-2.83 0l-.41.92a1.698 1.698 0 01-1.729 1l-1.004-.106a1.549 1.549 0 00-1.416 2.451L1.89 7a1.7 1.7 0 010 2l-.593.815a1.548 1.548 0 001.416 2.451l1.001-.106a1.703 1.703 0 011.732 1z" stroke="#8507D9" stroke-width="1.5" stroke-linecap="round" stroke-linejoin="round"/></svg>