<svg width="14" height="12" fill="none" xmlns="http://www.w3.org/2000/svg"><path fill-rule="evenodd" clip-rule="evenodd" d="M3.665 0h6.67c.513 0 .935 0 1.28.028.357.03.686.092.995.25.48.243.869.633 1.113 1.112.151.298.215.614.246.958.034.104.04.213.02.318.011.287.011.618.01.999V7.79c.001.512.001.935-.027 1.28-.03.357-.092.686-.25.995a2.545 2.545 0 01-1.112 1.112c-.309.157-.637.22-.995.25-.345.027-.767.027-1.28.027h-6.67c-.513 0-.935 0-1.28-.028-.357-.029-.686-.092-.995-.249a2.545 2.545 0 01-1.113-1.112c-.157-.31-.22-.638-.249-.996A16.993 16.993 0 010 7.79V3.666c0-.381 0-.712.012-.999a.636.636 0 01.02-.318c.03-.344.094-.66.245-.958A2.545 2.545 0 011.39.277c.309-.157.638-.22.995-.249C2.73 0 3.152 0 3.665 0zM1.273 3.768v3.996c0 .545 0 .915.024 1.202.022.279.064.421.114.52.123.24.317.435.557.557.1.05.242.092.52.115.287.023.658.024 1.203.024h6.618c.545 0 .916 0 1.202-.024.28-.023.422-.064.521-.115.24-.122.434-.317.556-.556.051-.1.093-.242.115-.521.024-.287.024-.657.024-1.202V3.768L8.533 6.704l-.074.051c-.346.244-.65.457-.997.544-.303.075-.62.075-.924 0-.346-.087-.65-.3-.997-.544a58.79 58.79 0 00-.074-.051L1.273 3.768zM12.675 2.25L7.803 5.66c-.464.325-.562.381-.65.403a.636.636 0 01-.307 0c-.087-.022-.185-.078-.649-.403L1.325 2.25a.971.971 0 01.086-.283c.123-.24.317-.435.557-.557.1-.05.242-.092.52-.114.287-.024.658-.024 1.203-.024h6.618c.545 0 .916 0 1.202.024.28.022.422.064.521.114.24.122.434.317.556.557a.974.974 0 01.087.283z" fill="#8507D9"/></svg>