<svg width="131" height="131" viewBox="0 0 131 131" fill="none" xmlns="http://www.w3.org/2000/svg">
<path fill-rule="evenodd" clip-rule="evenodd" d="M65.5 11.9091C35.9026 11.9091 11.9091 35.9026 11.9091 65.5C11.9091 95.0974 35.9026 119.091 65.5 119.091C95.0974 119.091 119.091 95.0974 119.091 65.5C119.091 35.9026 95.0974 11.9091 65.5 11.9091ZM0 65.5C0 29.3253 29.3253 0 65.5 0C101.675 0 131 29.3253 131 65.5C131 101.675 101.675 131 65.5 131C29.3253 131 0 101.675 0 65.5ZM57.3512 44.4484C59.9011 46.5251 60.2847 50.2758 58.2079 52.8257C54.8725 56.9211 50.0351 59.5454 44.6591 59.5454C39.2234 59.5454 34.5292 56.8716 31.1799 52.9096C29.0568 50.3982 29.3716 46.6411 31.8831 44.518C34.3945 42.395 38.1516 42.7098 40.2747 45.2213C41.8081 47.0352 43.3661 47.6364 44.6591 47.6364C46.0117 47.6364 47.6052 46.9857 48.9739 45.3052C51.0506 42.7553 54.8013 42.3717 57.3512 44.4484ZM99.033 44.4484C101.583 46.5251 101.966 50.2758 99.8898 52.8257C96.5543 56.9211 91.7169 59.5454 86.3409 59.5454C80.9052 59.5454 76.211 56.8716 72.8617 52.9096C70.7386 50.3982 71.0534 46.6411 73.5649 44.518C76.0764 42.395 79.8334 42.7098 81.9565 45.2213C83.4899 47.0352 85.048 47.6364 86.3409 47.6364C87.6935 47.6364 89.287 46.9857 90.6557 45.3052C92.7324 42.7553 96.4831 42.3717 99.033 44.4484ZM44.5062 78.548C49.2576 75.0924 56.4162 71.4545 65.5 71.4545C74.5838 71.4545 81.7424 75.0924 86.4938 78.548C88.8809 80.2841 90.7263 82.0197 91.9891 83.3374C92.623 83.9988 93.1171 84.5624 93.4663 84.9785C93.6411 85.1867 93.7802 85.3588 93.8829 85.4884L94.0097 85.6507L94.0526 85.7068L94.0689 85.7283L94.0758 85.7375C94.0773 85.7394 94.0818 85.7455 89.3182 89.3182L94.0818 85.7455C96.055 88.3763 95.5218 92.1087 92.8909 94.0818C90.2683 96.0488 86.5512 95.5251 84.5733 92.9157L84.5456 92.8804C84.5102 92.8357 84.4428 92.7518 84.3443 92.6345C84.1469 92.3993 83.827 92.0324 83.3909 91.5774C82.5138 90.6621 81.1958 89.4205 79.4892 88.1793C76.053 85.6803 71.3025 83.3636 65.5 83.3636C59.6975 83.3636 54.947 85.6803 51.5108 88.1793C49.8042 89.4205 48.4862 90.6621 47.6091 91.5774C47.173 92.0324 46.8531 92.3993 46.6557 92.6345C46.5572 92.7518 46.4898 92.8357 46.4544 92.8804L46.4293 92.9123L46.4358 92.9037L46.4403 92.8978M46.4403 92.8978C46.4349 92.9049 46.4347 92.9053 46.4293 92.9123C44.4513 95.5217 40.7317 96.0488 38.1091 94.0818C35.4782 92.1087 34.945 88.3763 36.9182 85.7455L41.6818 89.3182C36.9182 85.7455 36.9167 85.7474 36.9182 85.7455L36.9311 85.7283L36.9474 85.7068L36.9903 85.6507L37.1171 85.4884C37.2198 85.3588 37.3589 85.1867 37.5337 84.9785C37.8829 84.5624 38.377 83.9988 39.0109 83.3374C40.2737 82.0197 42.1191 80.2841 44.5062 78.548" fill="url(#paint0_linear_143_17)"/>
<defs>
<linearGradient id="paint0_linear_143_17" x1="65.5" y1="0" x2="65.5" y2="131" gradientUnits="userSpaceOnUse">
<stop/>
<stop offset="0.0001" stop-color="#F5F5F5"/>
<stop offset="1" stop-color="#BE6CFF"/>
</linearGradient>
</defs>
</svg>
