<svg width="16" height="16" fill="none" xmlns="http://www.w3.org/2000/svg"><path fill-rule="evenodd" clip-rule="evenodd" d="M12.952 0c.421 0 .762.341.762.762v1.524h1.524a.762.762 0 110 1.524h-1.524v1.523a.762.762 0 11-1.524 0V3.81h-1.523a.762.762 0 110-1.524h1.523V.762c0-.42.341-.762.762-.762zM4.388.762H8a.762.762 0 010 1.524H4.419c-.653 0-1.096 0-1.44.028-.333.028-.504.077-.623.138a1.52 1.52 0 00-.666.666c-.06.119-.11.29-.138.624-.028.343-.028.786-.028 1.439v6.4c0 .652 0 1.096.028 1.44.028.333.077.504.138.623.136.268.349.49.61.636.066-.103.137-.18.183-.231.116-.125.273-.268.435-.416L9.401 7.74c.122-.111.244-.222.355-.308.123-.096.276-.198.471-.261.275-.09.57-.099.85-.027.199.051.358.143.487.23.116.08.244.183.374.286l2.148 1.719.05.04c.239.19.45.359.614.569.206.261.351.565.428.889.06.26.06.53.06.836v.454a36.228 36.228 0 000 .128c0 .606 0 1.056-.104 1.446a3.044 3.044 0 01-2.155 2.155c-.39.104-.84.104-1.446.104h-7.7c-.194 0-.384 0-.542-.01a8.907 8.907 0 01-.435-.024c-.429-.035-.822-.11-1.192-.298a3.048 3.048 0 01-1.332-1.332c-.188-.37-.263-.764-.298-1.192C0 12.732 0 12.226 0 11.612V5.15c0-.613 0-1.119.034-1.531.035-.429.11-.822.298-1.192a3.048 3.048 0 011.332-1.332c.37-.188.763-.263 1.192-.298.412-.034.918-.034 1.532-.034zm9.014 13.115c.076-.1.14-.209.19-.325.044-.105.08-.254.101-.542.02-.295.021-.675.021-1.234 0-.405-.005-.485-.02-.551a.763.763 0 00-.142-.296c-.042-.054-.102-.107-.418-.36l-2.131-1.705a5.758 5.758 0 00-.298-.23l-.007-.005a5.745 5.745 0 00-.289.253l-6.153 5.594h6.758c.559 0 .939 0 1.234-.021.288-.02.437-.057.542-.102a1.52 1.52 0 00.612-.476zm-8.45-8.925a.762.762 0 100 1.524.762.762 0 000-1.524zm-2.285.762a2.286 2.286 0 114.571 0 2.286 2.286 0 01-4.571 0z" fill="#3B0273"/></svg>