<svg width="18" height="18" fill="none" xmlns="http://www.w3.org/2000/svg"><path fill-rule="evenodd" clip-rule="evenodd" d="M9 1.636a7.364 7.364 0 100 14.728A7.364 7.364 0 009 1.636zM0 9a9 9 0 1118 0A9 9 0 010 9zm5.318-2.455a1.227 1.227 0 112.455 0 1.227 1.227 0 01-2.455 0zm4.91 0a1.227 1.227 0 112.454 0 1.227 1.227 0 01-2.455 0zM4.5 10.636c0-.451.366-.818.818-.818h7.364c.452 0 .818.367.818.818 0 1.002-.585 1.93-1.373 2.576A4.955 4.955 0 019 14.318a4.955 4.955 0 01-3.127-1.106c-.788-.646-1.373-1.574-1.373-2.576zm1.943.819c.119.165.273.332.468.492A3.319 3.319 0 009 12.682c.824 0 1.563-.303 2.09-.735.194-.16.348-.327.467-.492H6.443z" fill="url(#paint0_linear_162_28)"/><defs><linearGradient id="paint0_linear_162_28" x1="9" y1="0" x2="9" y2="18" gradientUnits="userSpaceOnUse"><stop stop-color="#fff"/><stop offset="1" stop-color="#BE6CFF"/></linearGradient></defs></svg>