<svg width="18" height="18" fill="none" xmlns="http://www.w3.org/2000/svg"><path d="M6.778 6.333L4.11 9l2.667 2.667m4.444 0L13.89 9l-2.667-2.667M12.733 1H5.267c-1.494 0-2.24 0-2.811.29-.502.256-.91.664-1.165 1.166C1 3.026 1 3.773 1 5.266v7.467c0 1.494 0 2.24.29 2.811.256.502.664.91 1.166 1.165.57.291 1.317.291 2.81.291h7.467c1.494 0 2.24 0 2.811-.29.502-.256.91-.664 1.165-1.166.291-.57.291-1.317.291-2.81V5.266c0-1.494 0-2.24-.29-2.811a2.667 2.667 0 00-1.166-1.165C14.974 1 14.227 1 12.734 1z" stroke="url(#paint0_linear_51_652)" stroke-width="2" stroke-linecap="round" stroke-linejoin="round"/><defs><linearGradient id="paint0_linear_51_652" x1="9" y1="17" x2="9" y2="1" gradientUnits="userSpaceOnUse"><stop stop-color="#BE6CFF"/><stop offset="1" stop-color="#fff"/></linearGradient></defs></svg>