<svg width="18" height="18" fill="none" xmlns="http://www.w3.org/2000/svg"><path fill-rule="evenodd" clip-rule="evenodd" d="M14.571 0c.474 0 .858.384.858.857v1.714h1.714a.857.857 0 010 1.715h-1.714V6a.857.857 0 01-1.715 0V4.286H12a.857.857 0 110-1.715h1.714V.857c0-.473.384-.857.857-.857zM4.936.857H9a.857.857 0 010 1.714H4.971c-.734 0-1.233.001-1.619.033-.375.03-.568.086-.702.154a1.714 1.714 0 00-.749.75c-.068.134-.124.326-.155.701-.031.386-.032.885-.032 1.62v7.2c0 .734.001 1.233.032 1.619.031.376.087.568.155.702.154.301.393.55.687.715.074-.116.153-.203.205-.26.13-.14.307-.301.49-.468l7.293-6.63c.138-.125.274-.249.4-.346.138-.108.31-.222.53-.294.31-.1.64-.11.955-.03.224.057.403.16.549.26.13.089.274.204.42.32l2.417 1.934.055.044c.27.215.507.405.692.641.231.295.395.636.48 1 .07.293.07.596.069.94v.656c0 .682 0 1.188-.117 1.627a3.426 3.426 0 01-2.424 2.424c-.439.118-.945.117-1.627.117H4.313c-.22 0-.432 0-.61-.012a9.954 9.954 0 01-.49-.026c-.482-.04-.925-.124-1.341-.336a3.429 3.429 0 01-1.498-1.498c-.212-.416-.297-.859-.336-1.34C0 14.322 0 13.753 0 13.063v-7.27c0-.69 0-1.26.038-1.724.04-.482.124-.925.336-1.34a3.429 3.429 0 011.498-1.5c.416-.211.859-.296 1.34-.335C3.678.857 4.247.857 4.937.857zm10.141 14.754c.085-.111.157-.234.213-.365.05-.118.092-.286.115-.61.023-.332.024-.76.024-1.388 0-.456-.006-.546-.023-.62a.857.857 0 00-.16-.333c-.047-.06-.114-.12-.47-.405l-2.398-1.918a6.51 6.51 0 00-.335-.26l-.007-.004-.007.005a6.485 6.485 0 00-.318.28l-6.922 6.293h7.602c.629 0 1.056 0 1.388-.024.324-.023.492-.064.61-.114a1.714 1.714 0 00.688-.537zM5.571 5.571a.857.857 0 100 1.715.857.857 0 000-1.715zM3 6.43a2.571 2.571 0 115.143 0A2.571 2.571 0 013 6.43z" fill="url(#paint0_linear_51_662)"/><defs><linearGradient id="paint0_linear_51_662" x1="9" y1="0" x2="9" y2="18" gradientUnits="userSpaceOnUse"><stop stop-color="#fff"/><stop offset="1" stop-color="#BE6CFF"/></linearGradient></defs></svg>