<svg width="15" height="18" fill="none" xmlns="http://www.w3.org/2000/svg"><path fill-rule="evenodd" clip-rule="evenodd" d="M7.5 1.636c-3.222 0-5.833 2.565-5.833 5.728 0 1.548.71 3.009 1.91 4.538 1.013 1.29 2.309 2.553 3.7 3.908l.223.217.223-.217c1.391-1.355 2.688-2.617 3.7-3.908 1.2-1.53 1.91-2.99 1.91-4.538 0-3.163-2.611-5.728-5.833-5.728zM0 7.364C0 3.297 3.358 0 7.5 0 11.642 0 15 3.297 15 7.364c0 2.067-.956 3.878-2.256 5.536-1.087 1.386-2.479 2.74-3.868 4.093-.263.256-.526.511-.787.767a.844.844 0 01-1.178 0c-.261-.256-.524-.511-.787-.767-1.39-1.353-2.78-2.707-3.868-4.093C.956 11.242 0 9.43 0 7.364zm7.5-1.637c-.92 0-1.667.733-1.667 1.637C5.833 8.267 6.58 9 7.5 9s1.667-.733 1.667-1.636c0-.904-.747-1.637-1.667-1.637zM4.167 7.364c0-1.808 1.492-3.273 3.333-3.273 1.84 0 3.333 1.465 3.333 3.273 0 1.807-1.492 3.272-3.333 3.272-1.841 0-3.333-1.465-3.333-3.272z" fill="url(#paint0_linear_162_22)"/><defs><linearGradient id="paint0_linear_162_22" x1="7.5" y1="0" x2="7.5" y2="18" gradientUnits="userSpaceOnUse"><stop stop-color="#fff"/><stop offset="1" stop-color="#BE6CFF"/></linearGradient></defs></svg>