<svg width="18" height="16" fill="none" xmlns="http://www.w3.org/2000/svg"><path fill-rule="evenodd" clip-rule="evenodd" d="M4.82 0h7.959c.187 0 .369 0 .523.012.17.012.37.043.574.138a1.6 1.6 0 01.774.774c.095.204.125.404.138.574.012.154.012.336.012.523V6.8a6.001 6.001 0 01-5.2 5.947V14.4h3.2a.8.8 0 010 1.6h-8a.8.8 0 010-1.6H8v-1.653A6.001 6.001 0 012.8 6.8V2.021c0-.187 0-.369.012-.523.012-.17.043-.37.138-.574A1.6 1.6 0 013.724.15a1.62 1.62 0 01.574-.138A7.33 7.33 0 014.82 0zm-.412 1.608v.01a6.534 6.534 0 00-.008.426V6.8a4.4 4.4 0 008.8 0V2.044c0-.219 0-.34-.007-.426v-.01h-.011a6.531 6.531 0 00-.426-.008H4.844a6.532 6.532 0 00-.436.008zM.8 1.6a.8.8 0 01.8.8v4a.8.8 0 11-1.6 0v-4a.8.8 0 01.8-.8zm16 0a.8.8 0 01.8.8v4a.8.8 0 01-1.6 0v-4a.8.8 0 01.8-.8z" fill="url(#paint0_linear_51_675)"/><defs><linearGradient id="paint0_linear_51_675" x1="8.8" y1="0" x2="8.8" y2="16" gradientUnits="userSpaceOnUse"><stop stop-color="#fff"/><stop offset="1" stop-color="#BE6CFF"/></linearGradient></defs></svg>