<svg width="16" height="12" fill="none" xmlns="http://www.w3.org/2000/svg"><path fill-rule="evenodd" clip-rule="evenodd" d="M4.188 0h3.987c.586 0 1.07 0 1.463.032.409.034.784.105 1.137.285a2.91 2.91 0 011.272 1.271c.18.353.251.73.284 1.138.03.365.033.807.033 1.336l1.42-1.42a6.69 6.69 0 01.396-.376c.107-.09.332-.27.643-.294a1.09 1.09 0 01.916.38c.203.237.235.523.247.662.014.155.014.349.014.545v4.518c0 .197 0 .39-.014.546-.012.138-.044.424-.247.662a1.09 1.09 0 01-.916.38c-.311-.025-.536-.205-.643-.294a6.69 6.69 0 01-.396-.376l-1.42-1.421c0 .53-.003.971-.033 1.336-.033.41-.105.785-.284 1.138a2.909 2.909 0 01-1.272 1.271c-.353.18-.729.252-1.137.285-.394.032-.877.032-1.463.032H4.188c-.585 0-1.068 0-1.462-.032-.409-.033-.785-.105-1.138-.285a2.909 2.909 0 01-1.27-1.271C.137 9.695.065 9.319.031 8.91 0 8.517 0 8.034 0 7.448v-3.26c0-.585 0-1.068.032-1.462.034-.409.105-.785.285-1.138A2.91 2.91 0 011.588.318c.353-.18.73-.252 1.138-.286C3.12 0 3.603 0 4.188 0zm6.721 4.218c0-.623 0-1.046-.027-1.374-.026-.318-.073-.482-.131-.595a1.455 1.455 0 00-.636-.636c-.114-.058-.277-.105-.596-.131-.327-.027-.75-.027-1.374-.027H4.218c-.623 0-1.046 0-1.374.027-.318.026-.482.073-.595.131-.274.14-.496.362-.636.636-.058.113-.105.277-.131.595-.027.328-.027.751-.027 1.374v3.2c0 .623 0 1.047.027 1.374.026.319.073.482.131.596.14.273.362.496.636.635.113.058.277.106.595.132.328.026.751.027 1.374.027h3.927c.623 0 1.047 0 1.374-.027.32-.026.482-.074.596-.132.274-.14.496-.362.636-.635.058-.114.105-.277.13-.596.027-.327.028-.75.028-1.374v-3.2zm1.756 1.6l1.88 1.88v-3.76l-1.88 1.88z" fill="#3B0273"/></svg>