<svg width="32" height="33" viewBox="0 0 32 33" fill="none" xmlns="http://www.w3.org/2000/svg">
<path d="M0 4.93433C0 2.72519 1.79086 0.93433 4 0.93433H28C30.2091 0.93433 32 2.72519 32 4.93433V28.9343C32 31.1435 30.2091 32.9343 28 32.9343H4C1.79086 32.9343 0 31.1435 0 28.9343V4.93433Z" fill="#D9D9D9"/>
<path d="M0 4.93433C0 2.72519 1.79086 0.93433 4 0.93433H28C30.2091 0.93433 32 2.72519 32 4.93433V28.9343C32 31.1435 30.2091 32.9343 28 32.9343H4C1.79086 32.9343 0 31.1435 0 28.9343V4.93433Z" fill="#3B0273"/>
<path d="M15.0497 27.3285C13.739 27.3285 12.4938 27.1826 11.3142 26.8908C10.1491 26.5829 9.12238 26.0642 8.234 25.3348C7.36019 24.6054 6.66114 23.6328 6.13685 22.4171C5.62713 21.2015 5.37227 19.6778 5.37227 17.8462C5.37227 16.0308 5.58344 14.499 6.00578 13.2509C6.44269 11.9866 7.06892 10.9654 7.88447 10.1874C8.7146 9.40938 9.72676 8.85017 10.921 8.50978C12.1297 8.15318 13.506 7.97488 15.0497 7.97488C16.5935 7.97488 17.9187 8.08024 19.0256 8.29095C20.1324 8.48546 21.0645 8.7367 21.8218 9.04468C22.5936 9.35265 23.2199 9.69304 23.7005 10.0658C24.1522 10.3912 24.8801 10.0728 24.8801 9.51606V1.72629C24.8801 1.51557 24.8801 1.30485 24.8801 1.09413V0.934326L25.6639 0.934296C25.6639 0.934296 26.2335 0.934315 26.5985 0.934327C26.6199 1.14446 26.6059 1.02119 26.6059 1.02119C26.6205 1.2157 26.6277 1.43452 26.6277 1.67766V25.7724C26.6277 26.2911 26.5331 26.6396 26.3438 26.8179C26.169 26.9962 25.9797 27.0853 25.7758 27.0853C25.5282 27.0853 25.317 27.0043 25.1423 26.8422C24.9675 26.6801 24.8801 26.3397 24.8801 25.821V24.4708C24.8801 24.1967 24.1976 24.0495 24.0281 24.265C23.6204 24.7675 23.1325 25.197 22.5645 25.5536C22.0111 25.9102 21.3994 26.2101 20.7295 26.4532C20.0596 26.6801 19.3824 26.8584 18.6979 26.9881C18.028 27.1178 17.3726 27.2069 16.7318 27.2555C16.1056 27.3042 15.5449 27.3285 15.0497 27.3285ZM15.0497 25.894C15.9235 25.8778 16.8775 25.8048 17.9115 25.6752C18.9455 25.5293 19.9358 25.278 20.8824 24.9214C21.8291 24.5648 22.6665 24.0705 23.3946 23.4383C24.0042 22.9091 24.4505 22.2436 24.7335 21.4417C24.8452 21.1253 24.8801 20.7886 24.8801 20.4531V13.7929C24.8801 12.7844 24.4491 11.8119 23.5912 11.2815C23.0815 10.9573 22.4334 10.6575 21.647 10.3819C20.8751 10.0902 19.9431 9.85513 18.8508 9.67683C17.7731 9.49853 16.5061 9.40938 15.0497 9.40938C13.6516 9.40938 12.4501 9.57147 11.4453 9.89565C10.4549 10.2198 9.6321 10.7304 8.97674 11.4274C8.33594 12.1082 7.86263 12.9835 7.5568 14.0533C7.26553 15.1069 7.11989 16.3712 7.11989 17.8462C7.11989 19.386 7.32378 20.6747 7.73156 21.7121C8.1539 22.7332 8.72188 23.5518 9.43549 24.1677C10.1491 24.7837 10.9865 25.2294 11.9477 25.505C12.9235 25.7643 13.9575 25.894 15.0497 25.894Z" fill="white"/>
<path d="M0 4.93433C0 2.72519 1.79086 0.93433 4 0.93433H28C30.2091 0.93433 32 2.72519 32 4.93433V28.9343C32 31.1435 30.2091 32.9343 28 32.9343H4C1.79086 32.9343 0 31.1435 0 28.9343V4.93433Z" fill="#8507D9"/>
<path fill-rule="evenodd" clip-rule="evenodd" d="M10.6864 27.9233L10.6941 27.9253L10.7018 27.9273C11.9659 28.2399 13.2921 28.3942 14.6775 28.3942C15.2041 28.3942 15.7912 28.3684 16.4366 28.3182C17.1171 28.2666 17.8097 28.1721 18.5141 28.0358C19.2442 27.8974 19.9656 27.7074 20.6781 27.466L20.6883 27.4625L20.6984 27.4589C21.431 27.193 22.109 26.8619 22.7289 26.4631C23.0038 26.2902 23.2636 26.1018 23.5079 25.8978C23.5085 26.2015 23.5338 26.503 23.6048 26.7797C23.6749 27.0527 23.8101 27.3815 24.09 27.6411C24.4574 27.9819 24.9145 28.151 25.4035 28.151C25.9273 28.151 26.3564 27.9142 26.673 27.5963C27.1741 27.111 27.2555 26.3864 27.2555 25.8381V1H23.5102V1.09085L23.5079 1.12529V9.03406C23.0199 8.71664 22.4544 8.43483 21.8231 8.18276C20.9833 7.84158 19.9817 7.5751 18.8333 7.37294C17.6485 7.14799 16.2596 7.04055 14.6775 7.04055C13.0604 7.04055 11.5876 7.22691 10.2702 7.61502C8.93899 7.99512 7.78392 8.6278 6.82834 9.52343L6.82194 9.52953C5.87129 10.4364 5.16765 11.6029 4.68834 12.99L4.68628 12.9961C4.21857 14.3782 4 16.0256 4 17.9119C4 19.8281 4.26543 21.4936 4.84232 22.8695L4.84634 22.8788C5.42257 24.215 6.20855 25.3231 7.22089 26.1682L7.22717 26.1733C8.23186 26.9982 9.38936 27.5805 10.6864 27.9233ZM18.3256 27.0538L18.5157 28.0355L18.5141 28.0358L18.5118 28.0363L18.3256 27.0538ZM23.9759 22.3487C23.9697 22.3593 23.9635 22.37 23.9573 22.3806C23.9321 22.4233 23.9064 22.4655 23.88 22.5071C23.9129 22.4551 23.9449 22.4023 23.9759 22.3487ZM17.407 24.7496C16.4085 24.8746 15.4961 24.9439 14.6682 24.9597C13.6627 24.9589 12.7218 24.8397 11.8418 24.6067C11.0152 24.3684 10.3118 23.9901 9.71663 23.4764C9.14181 22.9802 8.65922 22.3013 8.28679 21.4038C7.94067 20.5192 7.74762 19.3665 7.74762 17.9119C7.74762 16.4998 7.88738 15.3315 8.14721 14.3896C8.41745 13.4464 8.82136 12.7217 9.333 12.1781C9.86315 11.6143 10.5373 11.1892 11.382 10.9124C12.2611 10.6291 13.3529 10.475 14.6775 10.475C16.096 10.475 17.306 10.5621 18.3153 10.7291L18.3174 10.7294C19.3647 10.9004 20.2285 11.1212 20.9212 11.383L20.9326 11.3873L20.9441 11.3913C21.6834 11.6504 22.2563 11.9202 22.6823 12.1911L22.6931 12.1977C23.0098 12.3936 23.2803 12.5773 23.5079 12.7486V20.8919C23.2855 21.6786 22.9012 22.2849 22.3668 22.7488C21.7325 23.2995 20.9988 23.7344 20.1576 24.0513C19.2842 24.3803 18.3679 24.6135 17.407 24.7496Z" fill="white"/>
</svg>
