<svg width="27" height="24" viewBox="0 0 27 24" fill="none" xmlns="http://www.w3.org/2000/svg">
<path fill-rule="evenodd" clip-rule="evenodd" d="M12.485 0.07621C12.8822 -0.0254034 13.2996 -0.0254034 13.6968 0.0762102C14.1576 0.194107 14.5487 0.481772 14.8605 0.711212C14.8902 0.733048 14.9192 0.754356 14.9474 0.77494L15.6697 1.3014C15.7606 1.36701 15.8526 1.43432 15.9463 1.5028C15.9924 1.53656 16.039 1.57059 16.086 1.60485C16.0873 1.6058 16.0886 1.60676 16.0899 1.60771L23.3256 6.88193C23.3256 6.88198 23.3255 6.88187 23.3256 6.88193L25.7057 8.61687C26.2315 9.00014 26.3381 9.72511 25.9437 10.2361C25.5494 10.7472 24.8034 10.8507 24.2776 10.4675L23.8016 10.1205V19.1868C23.8016 19.7965 23.8016 20.3225 23.7652 20.7557C23.7268 21.213 23.6419 21.6678 23.4125 22.1054C23.0702 22.7583 22.524 23.2891 21.8522 23.6218C21.4019 23.8448 20.934 23.9273 20.4635 23.9646C20.0177 24 19.4765 24 18.8492 24H7.33265C6.70531 24 6.16412 24 5.71836 23.9646C5.24787 23.9273 4.77991 23.8448 4.32961 23.6218C3.65783 23.2891 3.11165 22.7583 2.76936 22.1054C2.53992 21.6678 2.45505 21.213 2.41661 20.7557C2.38019 20.3225 2.3802 19.7965 2.38023 19.1867L2.38023 10.1205L1.90419 10.4675C1.37838 10.8507 0.632442 10.7472 0.238085 10.2361C-0.156271 9.72511 -0.0497081 9.00014 0.476101 8.61687L10.0919 1.60771C10.0939 1.60626 10.0959 1.60482 10.0979 1.60337C10.1442 1.56961 10.19 1.53607 10.2355 1.50281C10.3292 1.43434 10.4212 1.36704 10.5121 1.30144L11.2344 0.77494C11.2626 0.754355 11.2916 0.733047 11.3213 0.711212C11.6332 0.481772 12.0242 0.194106 12.485 0.07621ZM4.76038 8.38554V19.1422C4.76038 19.809 4.7613 20.2396 4.78885 20.5673C4.81527 20.8815 4.86011 20.998 4.89009 21.0552C5.00419 21.2728 5.18624 21.4498 5.41017 21.5607C5.46901 21.5898 5.58888 21.6334 5.91218 21.6591C6.24937 21.6858 6.6924 21.6867 7.37855 21.6867H8.33061L8.3306 14.2474C8.33057 13.9555 8.33053 13.6712 8.35077 13.4305C8.373 13.1661 8.42544 12.8541 8.59003 12.5402C8.81822 12.1049 9.18234 11.751 9.63019 11.5292C9.95321 11.3693 10.2742 11.3183 10.5463 11.2967C10.794 11.277 11.0865 11.2771 11.3869 11.2771H14.795C15.0953 11.2771 15.3878 11.277 15.6356 11.2967C15.9076 11.3183 16.2286 11.3693 16.5516 11.5292C16.9995 11.751 17.3636 12.1049 17.5918 12.5402C17.7564 12.8541 17.8088 13.1661 17.8311 13.4305C17.8513 13.6712 17.8513 13.9555 17.8512 14.2475L17.8512 21.6867H18.8033C19.4894 21.6867 19.9325 21.6858 20.2696 21.6591C20.5929 21.6334 20.7128 21.5898 20.7717 21.5607C20.9956 21.4498 21.1776 21.2728 21.2917 21.0552C21.3217 20.998 21.3666 20.8815 21.393 20.5673C21.4205 20.2396 21.4214 19.809 21.4214 19.1422V8.38554L14.6618 3.45831C13.7577 2.79929 13.5641 2.68407 13.3939 2.64051C13.1953 2.58971 12.9865 2.58971 12.788 2.64051C12.6177 2.68407 12.4241 2.79929 11.52 3.45831L4.76038 8.38554ZM15.4711 21.6867V14.2843C15.4711 13.9414 15.4701 13.7537 15.4588 13.6189C15.4584 13.6135 15.4579 13.6084 15.4574 13.6036C15.4525 13.6032 15.4473 13.6027 15.4417 13.6023C15.303 13.5913 15.1099 13.5904 14.757 13.5904H11.4248C11.0719 13.5904 10.8788 13.5913 10.7401 13.6023C10.7346 13.6027 10.7293 13.6032 10.7244 13.6036C10.7239 13.6084 10.7235 13.6135 10.723 13.6189C10.7117 13.7537 10.7108 13.9414 10.7108 14.2843V21.6867H15.4711Z" fill="white"/>
</svg>
