<svg width="16" height="16" viewBox="0 0 16 16" fill="none" xmlns="http://www.w3.org/2000/svg">
<path fill-rule="evenodd" clip-rule="evenodd" d="M7.2 1.6C4.10721 1.6 1.6 4.10721 1.6 7.2C1.6 10.2928 4.10721 12.8 7.2 12.8C8.70876 12.8 10.0782 12.2033 11.0851 11.2331C11.1062 11.2057 11.1292 11.1794 11.1543 11.1543C11.1794 11.1292 11.2057 11.1062 11.2331 11.0851C12.2033 10.0782 12.8 8.70876 12.8 7.2C12.8 4.10721 10.2928 1.6 7.2 1.6ZM12.8255 11.6941C13.8108 10.4624 14.4 8.90001 14.4 7.2C14.4 3.22355 11.1764 0 7.2 0C3.22355 0 0 3.22355 0 7.2C0 11.1764 3.22355 14.4 7.2 14.4C8.90001 14.4 10.4624 13.8108 11.6941 12.8255L14.6343 15.7657C14.9467 16.0781 15.4533 16.0781 15.7657 15.7657C16.0781 15.4533 16.0781 14.9467 15.7657 14.6343L12.8255 11.6941Z" fill="#8507D9"/>
</svg>
