<svg width="32" height="32" viewBox="0 0 32 32" fill="none" xmlns="http://www.w3.org/2000/svg">
<circle cx="16" cy="16" r="16" fill="white"/>
<path fill-rule="evenodd" clip-rule="evenodd" d="M8 11.4667C8 11.0249 8.35817 10.6667 8.8 10.6667H23.2C23.6418 10.6667 24 11.0249 24 11.4667C24 11.9085 23.6418 12.2667 23.2 12.2667H8.8C8.35817 12.2667 8 11.9085 8 11.4667ZM8 16.2667C8 15.8249 8.35817 15.4667 8.8 15.4667H23.2C23.6418 15.4667 24 15.8249 24 16.2667C24 16.7085 23.6418 17.0667 23.2 17.0667H8.8C8.35817 17.0667 8 16.7085 8 16.2667ZM12.8 21.0667C12.8 20.6249 13.1582 20.2667 13.6 20.2667H23.2C23.6418 20.2667 24 20.6249 24 21.0667C24 21.5085 23.6418 21.8667 23.2 21.8667H13.6C13.1582 21.8667 12.8 21.5085 12.8 21.0667Z" fill="#8507D9"/>
</svg>
