<svg width="32" height="32" viewBox="0 0 32 32" fill="none" xmlns="http://www.w3.org/2000/svg">
<circle cx="16" cy="16" r="16" fill="white"/>
<path fill-rule="evenodd" clip-rule="evenodd" d="M9.24842 16.0425C9.24842 11.9689 12.5507 8.66669 16.6242 8.66669C20.6977 8.66669 24 11.9689 24 16.0425C24 20.116 20.6977 23.4183 16.6242 23.4183C15.6913 23.4183 14.797 23.2447 13.9733 22.9273C13.9027 22.9001 13.8618 22.8844 13.8316 22.8736C13.8279 22.8723 13.8247 22.8711 13.822 22.8702C13.821 22.8702 13.82 22.8703 13.8189 22.8704C13.7943 22.8723 13.7608 22.8757 13.6967 22.8823L9.72075 23.2933C9.712 23.2942 9.70324 23.2951 9.69445 23.296C9.52815 23.3133 9.35467 23.3313 9.20956 23.3329C9.06535 23.3346 8.80542 23.3265 8.55619 23.1744C8.26405 22.9962 8.06507 22.6986 8.0121 22.3605C7.96691 22.072 8.05875 21.8287 8.11545 21.6961C8.17249 21.5627 8.25542 21.4093 8.33492 21.2622L9.61743 18.8884C9.67291 18.7857 9.70256 18.7304 9.72252 18.6893C9.72357 18.6871 9.72454 18.6851 9.72543 18.6832C9.72394 18.6778 9.72212 18.6714 9.71993 18.664C9.70312 18.6071 9.67726 18.53 9.63332 18.3996C9.3835 17.6585 9.24842 16.8655 9.24842 16.0425ZM16.6242 10.2195C13.4083 10.2195 10.8012 12.8265 10.8012 16.0425C10.8012 16.6946 10.9081 17.3203 11.1048 17.9037C11.111 17.9222 11.1175 17.9411 11.124 17.9604C11.187 18.1456 11.261 18.3632 11.2766 18.56C11.2908 18.7394 11.2779 18.891 11.2335 19.0655C11.1849 19.2562 11.0863 19.4376 11.0063 19.5847C10.9985 19.5989 10.9909 19.6129 10.9836 19.6264L9.85331 21.7185L13.537 21.3378C13.5454 21.3369 13.554 21.336 13.5628 21.3351C13.6552 21.3254 13.7697 21.3133 13.882 21.3176C13.9847 21.3216 14.0713 21.3331 14.1714 21.3562C14.2814 21.3815 14.4006 21.4277 14.5012 21.4666C14.5115 21.4706 14.5217 21.4745 14.5315 21.4784C15.18 21.7282 15.8851 21.8655 16.6242 21.8655C19.8402 21.8655 22.4472 19.2584 22.4472 16.0425C22.4472 12.8265 19.8402 10.2195 16.6242 10.2195ZM12.354 14.4897C12.354 14.0609 12.7016 13.7133 13.1304 13.7133H16.236C16.6648 13.7133 17.0124 14.0609 17.0124 14.4897C17.0124 14.9185 16.6648 15.2661 16.236 15.2661H13.1304C12.7016 15.2661 12.354 14.9185 12.354 14.4897ZM12.354 17.2071C12.354 16.7783 12.7016 16.4307 13.1304 16.4307H18.5652C18.994 16.4307 19.3416 16.7783 19.3416 17.2071C19.3416 17.6359 18.994 17.9835 18.5652 17.9835H13.1304C12.7016 17.9835 12.354 17.6359 12.354 17.2071Z" fill="#8507D9"/>
</svg>
