<svg width="24" height="24" viewBox="0 0 24 24" fill="none" xmlns="http://www.w3.org/2000/svg">
<path fill-rule="evenodd" clip-rule="evenodd" d="M6.91044 5.17549e-07H17.0896C18.0555 -1.47889e-05 18.8528 -2.73764e-05 19.5022 0.0530334C20.1767 0.108144 20.7968 0.226421 21.3792 0.52317C22.2823 0.983362 23.0166 1.71767 23.4768 2.62085C23.7736 3.20325 23.8919 3.82329 23.947 4.49781C24 5.14724 24 5.94446 24 6.91041V17.0896C24 18.0555 24 18.8528 23.947 19.5022C23.8919 20.1767 23.7736 20.7968 23.4768 21.3792C23.0166 22.2823 22.2823 23.0166 21.3792 23.4768C20.7968 23.7736 20.1767 23.8919 19.5022 23.947C18.8528 24 18.0555 24 17.0896 24H6.91041C5.94446 24 5.14724 24 4.49781 23.947C3.82329 23.8919 3.20325 23.7736 2.62085 23.4768C1.71767 23.0166 0.983362 22.2823 0.52317 21.3792C0.226421 20.7968 0.108144 20.1767 0.0530334 19.5022C-2.73764e-05 18.8528 -1.47889e-05 18.0555 5.17549e-07 17.0896V6.91044C-1.47889e-05 5.94448 -2.73764e-05 5.14724 0.0530334 4.49781C0.108144 3.82329 0.226421 3.20325 0.52317 2.62085C0.983362 1.71767 1.71767 0.983362 2.62085 0.52317C3.20325 0.226421 3.82329 0.108144 4.49781 0.0530334C5.14724 -2.73764e-05 5.94448 -1.47889e-05 6.91044 5.17549e-07ZM4.69325 2.44506C4.16715 2.48805 3.8981 2.56596 3.71042 2.66159C3.25884 2.89168 2.89168 3.25884 2.66159 3.71042C2.56596 3.8981 2.48805 4.16715 2.44506 4.69325C2.40093 5.23335 2.4 5.93211 2.4 6.96V17.04C2.4 18.0679 2.40093 18.7666 2.44506 19.3068C2.48805 19.8329 2.56596 20.1019 2.66159 20.2896C2.89168 20.7412 3.25884 21.1083 3.71042 21.3384C3.8981 21.434 4.16715 21.512 4.69325 21.5549C5.23335 21.5991 5.93211 21.6 6.96 21.6H17.04C18.0679 21.6 18.7666 21.5991 19.3068 21.5549C19.8329 21.512 20.1019 21.434 20.2896 21.3384C20.7412 21.1083 21.1083 20.7412 21.3384 20.2896C21.434 20.1019 21.512 19.8329 21.5549 19.3068C21.5991 18.7666 21.6 18.0679 21.6 17.04V6.96C21.6 5.93211 21.5991 5.23335 21.5549 4.69325C21.512 4.16715 21.434 3.8981 21.3384 3.71042C21.1083 3.25884 20.7412 2.89168 20.2896 2.66159C20.1019 2.56596 19.8329 2.48805 19.3068 2.44506C18.7666 2.40093 18.0679 2.4 17.04 2.4H6.96C5.93211 2.4 5.23335 2.40093 4.69325 2.44506ZM11.0941 6.51964C11.1055 6.52694 11.1168 6.53421 11.128 6.54145L16.7928 10.1831C16.8031 10.1897 16.8135 10.1964 16.824 10.2031C17.0052 10.3196 17.2033 10.4468 17.3612 10.5699C17.5285 10.7005 17.7927 10.9307 17.9485 11.2994C18.1378 11.7473 18.1378 12.2527 17.9485 12.7006C17.7927 13.0693 17.5285 13.2996 17.3612 13.4301C17.2033 13.5532 17.0052 13.6804 16.824 13.7969C16.8135 13.8036 16.8031 13.8103 16.7928 13.8169L11.128 17.4585C11.1168 17.4658 11.1055 17.4731 11.0941 17.4804C10.8832 17.616 10.6615 17.7586 10.4663 17.8602C10.2698 17.9625 9.91334 18.128 9.47177 18.0964C8.95096 18.0592 8.47198 17.7977 8.15907 17.3798C7.89376 17.0254 7.8402 16.636 7.81998 16.4155C7.79987 16.1963 7.79994 15.9327 7.79999 15.6819C7.8 15.6684 7.8 15.655 7.8 15.6416V8.3584C7.8 8.345 7.8 8.33156 7.79999 8.31808C7.79994 8.06735 7.79987 7.80373 7.81998 7.58451C7.8402 7.36398 7.89376 6.97463 8.15907 6.62024C8.47199 6.20227 8.95097 5.94077 9.47177 5.90357C9.91334 5.87204 10.2698 6.03753 10.4663 6.13977C10.6615 6.24141 10.8832 6.38401 11.0941 6.51964ZM10.2 8.798V15.202L15.1809 12L10.2 8.798Z" fill="white"/>
</svg>
