<svg width="33" height="24" viewBox="0 0 33 24" fill="none" xmlns="http://www.w3.org/2000/svg">
<path fill-rule="evenodd" clip-rule="evenodd" d="M16.0992 2.38612C13.774 2.38612 11.889 4.27111 11.889 6.59636C11.889 8.92162 13.774 10.8066 16.0992 10.8066C18.4245 10.8066 20.3095 8.92162 20.3095 6.59636C20.3095 4.27111 18.4245 2.38612 16.0992 2.38612ZM9.50286 6.59636C9.50286 2.95329 12.4561 0 16.0992 0C19.7423 0 22.6956 2.95329 22.6956 6.59636C22.6956 10.2394 19.7423 13.1927 16.0992 13.1927C12.4561 13.1927 9.50286 10.2394 9.50286 6.59636ZM22.8356 1.22376C23.1288 0.633702 23.8449 0.393077 24.4349 0.686313C26.604 1.76426 28.0989 4.00465 28.0989 6.59636C28.0989 9.18808 26.604 11.4285 24.4349 12.5064C23.8449 12.7997 23.1288 12.559 22.8356 11.969C22.5424 11.3789 22.783 10.6628 23.373 10.3696C24.7622 9.67924 25.7128 8.24771 25.7128 6.59636C25.7128 4.94502 24.7622 3.51349 23.373 2.82312C22.783 2.52988 22.5424 1.81383 22.8356 1.22376ZM16.0992 16.7949C13.1586 16.7949 10.4862 18.3976 8.75819 20.9921C8.65088 21.1532 8.56848 21.2771 8.50011 21.3857C8.44242 21.4774 8.40497 21.5423 8.38001 21.5902C8.38168 21.5904 8.38338 21.5906 8.38511 21.5908C8.56143 21.6113 8.81166 21.6132 9.28188 21.6132H22.9166C23.3868 21.6132 23.637 21.6113 23.8133 21.5908C23.8151 21.5906 23.8168 21.5904 23.8184 21.5902C23.7935 21.5423 23.756 21.4774 23.6983 21.3857C23.63 21.2771 23.5476 21.1532 23.4403 20.9921C21.7123 18.3976 19.0399 16.7949 16.0992 16.7949ZM6.77222 19.6694C8.87291 16.5153 12.2422 14.4088 16.0992 14.4088C19.9562 14.4088 23.3255 16.5153 25.4262 19.6694C25.4358 19.6838 25.4454 19.6982 25.455 19.7126C25.6396 19.9895 25.836 20.2842 25.9733 20.5642C26.1384 20.901 26.2568 21.2875 26.2291 21.749C26.207 22.117 26.0849 22.4587 25.9396 22.73C25.7943 23.0014 25.5776 23.2924 25.2835 23.5148C24.8896 23.8127 24.465 23.9172 24.089 23.961C23.7578 23.9995 23.3655 23.9994 22.9696 23.9993H9.22886C8.83299 23.9994 8.44061 23.9995 8.1094 23.961C7.73346 23.9172 7.30884 23.8127 6.91492 23.5148C6.62083 23.2924 6.40419 23.0014 6.25888 22.73C6.11356 22.4587 5.99145 22.117 5.96936 21.749C5.94166 21.2875 6.06007 20.901 6.22518 20.5642C6.36247 20.2842 6.55889 19.9895 6.74344 19.7126C6.75307 19.6982 6.76266 19.6838 6.77222 19.6694ZM25.2394 16.0712C25.5351 15.4824 26.2522 15.2449 26.841 15.5406C28.8022 16.5258 30.4601 18.0943 31.66 20.0273C31.6734 20.0488 31.6872 20.0708 31.7013 20.0933C31.8798 20.3785 32.1119 20.7492 32.1878 21.2389C32.2755 21.8045 32.122 22.3457 31.893 22.7574C31.664 23.169 31.2852 23.5849 30.7584 23.8087C30.2996 24.0036 29.8039 24.0014 29.4125 23.9997C29.3765 23.9995 29.3414 23.9993 29.3073 23.9993C28.6484 23.9993 28.1142 23.4652 28.1142 22.8063C28.1142 22.1474 28.6484 21.6132 29.3073 21.6132C29.5691 21.6132 29.7055 21.6125 29.803 21.6056C29.8046 21.6029 29.8062 21.6003 29.8077 21.5975C29.8099 21.5936 29.8118 21.5898 29.8137 21.5861C29.8022 21.5651 29.7864 21.5372 29.764 21.4996C29.7296 21.4419 29.6886 21.3757 29.6328 21.2858C28.6447 19.6941 27.3051 18.444 25.7699 17.6729C25.1811 17.3771 24.9436 16.66 25.2394 16.0712Z" fill="white"/>
<path fill-rule="evenodd" clip-rule="evenodd" d="M16.1135 2.38612C18.4388 2.38612 20.3238 4.27111 20.3238 6.59636C20.3238 8.92162 18.4388 10.8066 16.1135 10.8066C13.7883 10.8066 11.9033 8.92162 11.9033 6.59636C11.9033 4.27111 13.7883 2.38612 16.1135 2.38612ZM22.7099 6.59636C22.7099 2.95329 19.7566 0 16.1135 0C12.4705 0 9.51718 2.95329 9.51718 6.59636C9.51718 10.2394 12.4705 13.1927 16.1135 13.1927C19.7566 13.1927 22.7099 10.2394 22.7099 6.59636ZM9.37718 1.22376C9.08394 0.633702 8.36789 0.393077 7.77782 0.686313C5.60872 1.76426 4.11388 4.00465 4.11388 6.59636C4.11388 9.18808 5.60872 11.4285 7.77782 12.5064C8.36789 12.7997 9.08394 12.559 9.37718 11.969C9.67041 11.3789 9.42979 10.6628 8.83973 10.3696C7.45052 9.67924 6.5 8.24771 6.5 6.59636C6.5 4.94502 7.45052 3.51349 8.83973 2.82312C9.42979 2.52988 9.67041 1.81383 9.37718 1.22376ZM16.1135 16.7949C19.0542 16.7949 21.7266 18.3976 23.4546 20.9921C23.5619 21.1532 23.6443 21.2771 23.7127 21.3857C23.7703 21.4774 23.8078 21.5423 23.8328 21.5902C23.8311 21.5904 23.8294 21.5906 23.8277 21.5908C23.6513 21.6113 23.4011 21.6132 22.9309 21.6132H9.29621C8.82598 21.6132 8.57576 21.6113 8.39943 21.5908C8.3977 21.5906 8.39601 21.5904 8.39434 21.5902C8.41929 21.5423 8.45675 21.4774 8.51443 21.3857C8.5828 21.2771 8.6652 21.1532 8.77251 20.9921C10.5005 18.3976 13.1729 16.7949 16.1135 16.7949ZM25.4405 19.6694C23.3399 16.5153 19.9705 14.4088 16.1135 14.4088C12.2566 14.4088 8.88723 16.5153 6.78654 19.6694C6.77699 19.6838 6.76739 19.6982 6.75776 19.7126C6.57322 19.9895 6.37679 20.2842 6.2395 20.5642C6.07439 20.901 5.95598 21.2875 5.98368 21.749C6.00578 22.117 6.12789 22.4587 6.2732 22.73C6.41851 23.0014 6.63515 23.2924 6.92924 23.5148C7.32316 23.8127 7.74779 23.9172 8.12372 23.961C8.45493 23.9995 8.84731 23.9994 9.24318 23.9993H22.9839C23.3798 23.9994 23.7722 23.9995 24.1034 23.961C24.4793 23.9172 24.9039 23.8127 25.2978 23.5148C25.5919 23.2924 25.8086 23.0014 25.9539 22.73C26.0992 22.4587 26.2213 22.117 26.2434 21.749C26.2711 21.2875 26.1527 20.901 25.9876 20.5642C25.8503 20.2842 25.6539 19.9895 25.4693 19.7126C25.4597 19.6982 25.4501 19.6838 25.4405 19.6694ZM6.97341 16.0712C6.67763 15.4824 5.96054 15.2449 5.37175 15.5406C3.4106 16.5258 1.75268 18.0943 0.552735 20.0273C0.539395 20.0488 0.525617 20.0708 0.511504 20.0933C0.332977 20.3785 0.100863 20.7492 0.0249613 21.2389C-0.0627123 21.8045 0.0908053 22.3457 0.319786 22.7574C0.548764 23.169 0.927569 23.5849 1.45438 23.8087C1.91315 24.0036 2.40882 24.0014 2.80026 23.9997C2.83625 23.9995 2.87136 23.9993 2.90547 23.9993C3.56438 23.9993 4.09853 23.4652 4.09853 22.8063C4.09853 22.1474 3.56438 21.6132 2.90547 21.6132C2.64365 21.6132 2.50729 21.6125 2.40973 21.6056C2.40815 21.6029 2.40658 21.6003 2.40503 21.5975C2.4029 21.5936 2.40092 21.5898 2.3991 21.5861C2.41053 21.5651 2.42637 21.5372 2.44873 21.4996C2.48313 21.4419 2.52419 21.3757 2.57999 21.2858C3.56805 19.6941 4.90771 18.444 6.44286 17.6729C7.03165 17.3771 7.26919 16.66 6.97341 16.0712Z" fill="white"/>
</svg>
