<svg width="27" height="24" viewBox="0 0 27 24" fill="none" xmlns="http://www.w3.org/2000/svg">
<path fill-rule="evenodd" clip-rule="evenodd" d="M10.1339 2.38612C7.80864 2.38612 5.92365 4.27111 5.92365 6.59636C5.92365 8.92162 7.80864 10.8066 10.1339 10.8066C12.4591 10.8066 14.3441 8.92162 14.3441 6.59636C14.3441 4.27111 12.4591 2.38612 10.1339 2.38612ZM3.53753 6.59636C3.53753 2.95329 6.49082 0 10.1339 0C13.777 0 16.7303 2.95329 16.7303 6.59636C16.7303 10.2394 13.777 13.1927 10.1339 13.1927C6.49082 13.1927 3.53753 10.2394 3.53753 6.59636ZM16.8703 1.22376C17.1635 0.633702 17.8796 0.393077 18.4696 0.686313C20.6387 1.76426 22.1336 4.00465 22.1336 6.59636C22.1336 9.18808 20.6387 11.4285 18.4696 12.5064C17.8796 12.7997 17.1635 12.559 16.8703 11.969C16.577 11.3789 16.8176 10.6628 17.4077 10.3696C18.7969 9.67924 19.7474 8.24771 19.7474 6.59636C19.7474 4.94502 18.7969 3.51349 17.4077 2.82312C16.8176 2.52988 16.577 1.81383 16.8703 1.22376ZM10.1339 16.7949C7.19322 16.7949 4.52084 18.3976 2.79285 20.9921C2.68555 21.1532 2.60314 21.2771 2.53478 21.3857C2.47709 21.4774 2.43964 21.5423 2.41468 21.5902C2.41635 21.5904 2.41805 21.5906 2.41977 21.5908C2.5961 21.6113 2.84633 21.6132 3.31655 21.6132H16.9512C17.4215 21.6132 17.6717 21.6113 17.848 21.5908C17.8497 21.5906 17.8514 21.5904 17.8531 21.5902C17.8281 21.5423 17.7907 21.4774 17.733 21.3857C17.6646 21.2771 17.5822 21.1532 17.4749 20.9921C15.7469 18.3976 13.0746 16.7949 10.1339 16.7949ZM0.806887 19.6694C2.90758 16.5153 6.2769 14.4088 10.1339 14.4088C13.9909 14.4088 17.3602 16.5153 19.4609 19.6694C19.4704 19.6838 19.48 19.6982 19.4897 19.7126C19.6742 19.9895 19.8706 20.2842 20.0079 20.5642C20.173 20.901 20.2915 21.2875 20.2638 21.749C20.2417 22.117 20.1195 22.4587 19.9742 22.73C19.8289 23.0014 19.6123 23.2924 19.3182 23.5148C18.9243 23.8127 18.4997 23.9172 18.1237 23.961C17.7925 23.9995 17.4001 23.9994 17.0043 23.9993H3.26353C2.86766 23.9994 2.47528 23.9995 2.14407 23.961C1.76813 23.9172 1.34351 23.8127 0.94959 23.5148C0.655499 23.2924 0.438855 23.0014 0.293544 22.73C0.148232 22.4587 0.0261202 22.117 0.00402787 21.749C-0.0236729 21.2875 0.0947366 20.901 0.259847 20.5642C0.397134 20.2842 0.593561 19.9895 0.778106 19.7126C0.787736 19.6982 0.797333 19.6838 0.806887 19.6694ZM19.274 16.0712C19.5698 15.4824 20.2869 15.2449 20.8757 15.5406C22.8368 16.5258 24.4948 18.0943 25.6947 20.0273C25.708 20.0488 25.7218 20.0708 25.7359 20.0933C25.9145 20.3785 26.1466 20.7492 26.2225 21.2389C26.3101 21.8045 26.1566 22.3457 25.9277 22.7574C25.6987 23.169 25.3199 23.5849 24.7931 23.8087C24.3343 24.0036 23.8386 24.0014 23.4472 23.9997C23.4112 23.9995 23.3761 23.9993 23.342 23.9993C22.6831 23.9993 22.1489 23.4652 22.1489 22.8063C22.1489 22.1474 22.6831 21.6132 23.342 21.6132C23.6038 21.6132 23.7401 21.6125 23.8377 21.6056C23.8393 21.6029 23.8409 21.6003 23.8424 21.5975C23.8445 21.5936 23.8465 21.5898 23.8483 21.5861C23.8369 21.5651 23.8211 21.5372 23.7987 21.4996C23.7643 21.4419 23.7232 21.3757 23.6674 21.2858C22.6794 19.6941 21.3397 18.444 19.8046 17.6729C19.2158 17.3771 18.9782 16.66 19.274 16.0712Z" fill="white"/>
<path fill-rule="evenodd" clip-rule="evenodd" d="M10.1481 2.38612C12.4733 2.38612 14.3583 4.27111 14.3583 6.59637C14.3583 8.92162 12.4733 10.8066 10.1481 10.8066C7.82284 10.8066 5.93785 8.92162 5.93785 6.59637C5.93785 4.27111 7.82284 2.38612 10.1481 2.38612ZM16.7445 6.59637C16.7445 2.95329 13.7912 0 10.1481 0C6.50502 0 3.55173 2.95329 3.55173 6.59637C3.55173 10.2394 6.50502 13.1927 10.1481 13.1927C13.7912 13.1927 16.7445 10.2394 16.7445 6.59637ZM10.1481 16.7949C13.0888 16.7949 15.7611 18.3976 17.4891 20.9921C17.5964 21.1532 17.6788 21.2771 17.7472 21.3857C17.8049 21.4774 17.8423 21.5423 17.8673 21.5902C17.8656 21.5904 17.8639 21.5906 17.8622 21.5908C17.6859 21.6113 17.4357 21.6132 16.9654 21.6132H3.33075C2.86053 21.6132 2.61031 21.6113 2.43398 21.5908C2.43225 21.5906 2.43056 21.5904 2.42888 21.5902C2.45384 21.5423 2.4913 21.4774 2.54898 21.3857C2.61735 21.2771 2.69975 21.1532 2.80706 20.9921C4.53505 18.3976 7.20743 16.7949 10.1481 16.7949ZM19.4751 19.6694C17.3744 16.5153 14.0051 14.4088 10.1481 14.4088C6.2911 14.4088 2.92178 16.5153 0.82109 19.6694C0.811536 19.6838 0.80194 19.6982 0.792311 19.7126C0.607764 19.9895 0.411337 20.2842 0.274051 20.5642C0.108941 20.901 -0.00946827 21.2875 0.0182301 21.749C0.0403226 22.117 0.162433 22.4587 0.307745 22.73C0.453057 23.0014 0.669702 23.2924 0.963791 23.5148C1.35771 23.8127 1.78233 23.9172 2.15827 23.961C2.48948 23.9995 2.88186 23.9994 3.27773 23.9993H17.0185C17.4143 23.9994 17.8067 23.9995 18.1379 23.961C18.5139 23.9172 18.9385 23.8127 19.3324 23.5148C19.6265 23.2924 19.8431 23.0014 19.9884 22.73C20.1338 22.4587 20.2559 22.117 20.278 21.749C20.3057 21.2875 20.1872 20.901 20.0221 20.5642C19.8848 20.2842 19.6884 19.9895 19.5039 19.7126C19.4942 19.6982 19.4846 19.6838 19.4751 19.6694Z" fill="white"/>
</svg>
