<svg width="32" height="32" viewBox="0 0 32 32" fill="none" xmlns="http://www.w3.org/2000/svg">
<circle cx="16" cy="16" r="16" fill="white"/>
<path fill-rule="evenodd" clip-rule="evenodd" d="M15.8097 9.62132C15.6521 9.03312 15.0475 8.68406 14.4593 8.84166C13.8711 8.99927 13.5221 9.60387 13.6797 10.1921C13.7217 10.3491 13.7952 10.4887 13.8919 10.6063C14.1951 10.4651 14.5125 10.3494 14.8398 10.2617C15.1672 10.174 15.4999 10.1155 15.8331 10.0862C15.858 9.936 15.8518 9.7783 15.8097 9.62132ZM17.3064 10.1498C17.3347 9.85276 17.3115 9.5457 17.2298 9.24082C16.862 7.86835 15.4513 7.05386 14.0788 7.42162C12.7063 7.78937 11.8919 9.2001 12.2596 10.5726C12.3413 10.8774 12.4747 11.155 12.6477 11.3981C12.284 11.7047 11.9633 12.0572 11.6987 12.4483C10.9766 13.5155 10.7269 14.7926 11.0492 15.9956C11.4502 17.4921 11.3647 18.6506 11.1269 19.5026L11.123 19.5166C10.97 20.0645 10.8506 20.4924 10.7752 20.7967C10.7375 20.9489 10.706 21.089 10.6873 21.2067C10.6781 21.2651 10.6692 21.3346 10.6671 21.4064C10.6655 21.46 10.6633 21.5984 10.7203 21.7501C10.7516 21.8334 10.8163 21.9982 10.9617 22.1451C11.1071 22.292 11.2712 22.3585 11.3542 22.3906C11.4894 22.443 11.612 22.4481 11.6726 22.4486C11.744 22.4492 11.8115 22.4428 11.867 22.4356C11.978 22.4212 12.1047 22.3952 12.2359 22.3648C12.4976 22.3043 12.86 22.2072 13.3168 22.0848L14.2329 21.8394C14.8764 22.9798 16.2309 23.587 17.5543 23.2324C18.8777 22.8778 19.7471 21.6747 19.7342 20.3653L22.0706 19.7393C22.5272 19.6169 22.8896 19.5198 23.1464 19.4414C23.2752 19.402 23.398 19.3613 23.5013 19.3182C23.553 19.2967 23.6147 19.2685 23.6762 19.2323C23.7284 19.2016 23.832 19.1358 23.923 19.0228C23.9787 18.9535 24.0876 18.8139 24.1401 18.614C24.1926 18.414 24.1662 18.239 24.1517 18.1512C24.1251 17.9913 24.0541 17.8725 24.0259 17.827C23.9881 17.7658 23.9457 17.71 23.9085 17.6641C23.8335 17.5715 23.7362 17.4659 23.6274 17.353C23.4099 17.1271 23.0926 16.8163 22.6863 16.4184L22.6757 16.4081C22.0438 15.7892 21.3905 14.8286 20.9895 13.3321C20.6672 12.1291 19.8124 11.1479 18.6535 10.5848C18.2287 10.3784 17.7747 10.2335 17.3064 10.1498ZM16.3331 11.5343C16.3428 11.5346 16.3525 11.5346 16.3622 11.5344C16.9488 11.5387 17.5153 11.6663 18.011 11.9071C18.821 12.3007 19.3671 12.9572 19.5695 13.7126C20.0367 15.4564 20.822 16.6503 21.6471 17.4584C21.9309 17.7363 22.1609 17.9617 22.3422 18.143C22.1585 18.1937 21.9374 18.2529 21.6739 18.3235L12.9522 20.6605C12.6887 20.7311 12.4677 20.7903 12.2832 20.8383C12.3496 20.5906 12.4361 20.2805 12.5429 19.8978C12.8534 18.7854 12.9365 17.3589 12.4693 15.6151C12.2668 14.8597 12.4116 14.0181 12.9162 13.2723C13.2251 12.8159 13.6518 12.4221 14.1578 12.1251C14.1663 12.1204 14.1746 12.1155 14.1829 12.1105C14.5011 11.9267 14.8501 11.781 15.2203 11.6818C15.5906 11.5826 15.9656 11.5342 16.3331 11.5343ZM15.7535 21.4319C16.1127 21.7906 16.6482 21.9532 17.1738 21.8123C17.6994 21.6715 18.0818 21.263 18.2136 20.7727L15.7535 21.4319Z" fill="#8507D9"/>
</svg>
