<svg width="104" height="108" fill="none" xmlns="http://www.w3.org/2000/svg"><mask id="a" maskUnits="userSpaceOnUse" x="0" y=".022" width="104" height="108" fill="#000"><path fill="#fff" d="M0 .022h104v108H0z"/><path d="M1 13a8 8 0 018-8h86a8 8 0 018 8v86a8 8 0 01-8 8H9a8 8 0 01-8-8V13z"/><path d="M1 13a8 8 0 018-8h86a8 8 0 018 8v86a8 8 0 01-8 8H9a8 8 0 01-8-8V13z"/><path d="M48.971 89.131c-4.178 0-8.147-.465-11.907-1.395-3.714-.981-6.986-2.635-9.818-4.96-2.785-2.325-5.014-5.425-6.685-9.3-1.625-3.874-2.437-8.731-2.437-14.57 0-5.786.673-10.669 2.02-14.647 1.392-4.03 3.388-7.285 5.988-9.765 2.646-2.48 5.872-4.262 9.679-5.347 3.853-1.137 8.24-1.705 13.16-1.705s9.145.335 12.673 1.007c3.528.62 6.499 1.421 8.913 2.403 2.46.981 4.456 2.066 5.988 3.255 1.579 1.136 2.832 2.196 3.76 3.177V5.51a6.675 6.675 0 01.348-1.782c.186-.517.441-.93.766-1.24.372-.31.906-.465 1.602-.465.696 0 1.23.155 1.602.465.37.258.65.62.835 1.085.186.465.302 1.033.348 1.705.047.62.07 1.317.07 2.092v76.802c0 1.654-.302 2.764-.905 3.333-.557.568-1.16.852-1.81.852-.79 0-1.463-.258-2.02-.775-.557-.516-.836-1.601-.836-3.255V73.554c-.51 2.222-1.416 4.16-2.715 5.812a18.89 18.89 0 01-4.666 4.108c-1.764 1.136-3.713 2.092-5.849 2.867a48.044 48.044 0 01-6.476 1.705 54.805 54.805 0 01-6.266.853 69.983 69.983 0 01-5.362.232zm0-4.572c2.785-.052 5.826-.284 9.122-.698a44.348 44.348 0 009.47-2.402c3.017-1.137 5.686-2.713 8.007-4.728 2.322-2.015 3.9-4.65 4.735-7.904v-27.9c-1.067-.93-2.437-1.912-4.108-2.945-1.625-1.034-3.69-1.99-6.197-2.868-2.46-.93-5.431-1.679-8.913-2.247-3.435-.569-7.474-.853-12.116-.853-4.456 0-8.286.517-11.49 1.55-3.156 1.033-5.779 2.661-7.868 4.883-2.042 2.17-3.55 4.96-4.526 8.37-.928 3.358-1.392 7.388-1.392 12.09 0 4.908.65 9.015 1.95 12.322 1.346 3.255 3.156 5.864 5.43 7.827 2.275 1.964 4.945 3.385 8.008 4.263 3.11.827 6.406 1.24 9.888 1.24z"/></mask><path d="M1 13a8 8 0 018-8h86a8 8 0 018 8v86a8 8 0 01-8 8H9a8 8 0 01-8-8V13z" fill="#D9D9D9"/><path d="M1 13a8 8 0 018-8h86a8 8 0 018 8v86a8 8 0 01-8 8H9a8 8 0 01-8-8V13z" fill="#8507D9"/><path d="M48.971 89.131c-4.178 0-8.147-.465-11.907-1.395-3.714-.981-6.986-2.635-9.818-4.96-2.785-2.325-5.014-5.425-6.685-9.3-1.625-3.874-2.437-8.731-2.437-14.57 0-5.786.673-10.669 2.02-14.647 1.392-4.03 3.388-7.285 5.988-9.765 2.646-2.48 5.872-4.262 9.679-5.347 3.853-1.137 8.24-1.705 13.16-1.705s9.145.335 12.673 1.007c3.528.62 6.499 1.421 8.913 2.403 2.46.981 4.456 2.066 5.988 3.255 1.579 1.136 2.832 2.196 3.76 3.177V5.51a6.675 6.675 0 01.348-1.782c.186-.517.441-.93.766-1.24.372-.31.906-.465 1.602-.465.696 0 1.23.155 1.602.465.37.258.65.62.835 1.085.186.465.302 1.033.348 1.705.047.62.07 1.317.07 2.092v76.802c0 1.654-.302 2.764-.905 3.333-.557.568-1.16.852-1.81.852-.79 0-1.463-.258-2.02-.775-.557-.516-.836-1.601-.836-3.255V73.554c-.51 2.222-1.416 4.16-2.715 5.812a18.89 18.89 0 01-4.666 4.108c-1.764 1.136-3.713 2.092-5.849 2.867a48.044 48.044 0 01-6.476 1.705 54.805 54.805 0 01-6.266.853 69.983 69.983 0 01-5.362.232zm0-4.572c2.785-.052 5.826-.284 9.122-.698a44.348 44.348 0 009.47-2.402c3.017-1.137 5.686-2.713 8.007-4.728 2.322-2.015 3.9-4.65 4.735-7.904v-27.9c-1.067-.93-2.437-1.912-4.108-2.945-1.625-1.034-3.69-1.99-6.197-2.868-2.46-.93-5.431-1.679-8.913-2.247-3.435-.569-7.474-.853-12.116-.853-4.456 0-8.286.517-11.49 1.55-3.156 1.033-5.779 2.661-7.868 4.883-2.042 2.17-3.55 4.96-4.526 8.37-.928 3.358-1.392 7.388-1.392 12.09 0 4.908.65 9.015 1.95 12.322 1.346 3.255 3.156 5.864 5.43 7.827 2.275 1.964 4.945 3.385 8.008 4.263 3.11.827 6.406 1.24 9.888 1.24z" fill="#fff"/><path d="M9 6h86V4H9v2zm93 7v86h2V13h-2zm-7 93H9v2h86v-2zM2 99V13H0v86h2zm7 7a7 7 0 01-7-7H0a9 9 0 009 9v-2zm93-7a7 7 0 01-7 7v2a9 9 0 009-9h-2zM95 6a7 7 0 017 7h2a9 9 0 00-9-9v2zM9 4a9 9 0 00-9 9h2a7 7 0 017-7V4zm28.064 83.736l-.511 1.934.015.004.016.004.48-1.942zm-9.818-4.96l-1.282 1.536.007.005.006.005 1.269-1.546zm-6.685-9.3l-1.844.774.004.01.004.008 1.836-.792zm-.418-29.217l-1.89-.653-.004.012 1.894.641zm5.989-9.765l-1.368-1.46-.006.007-.007.006 1.38 1.447zm9.679-5.347l.548 1.923.009-.002.008-.003-.565-1.918zm25.833-.698l-.374 1.965.014.003.014.002.346-1.97zm8.913 2.403l-.754 1.852.013.005.74-1.857zm5.988 3.255l-1.226 1.58.028.022.03.02 1.168-1.622zm3.76 3.177l-1.453 1.374 3.453 3.651v-5.025h-2zm0-31.775l-1.995-.138-.005.07v.068h2zm1.114-3.022L80.138.95l-.051.043-.048.046 1.38 1.447zm3.204 0L83.34 4.022l.067.057.073.05 1.142-1.642zm1.183 2.79l-1.995.138v.011l1.995-.15zm-.835 82.227L83.6 86.048l-.03.027-.028.029 1.429 1.4zm-4.666-13.95h2l-3.949-.448 1.95.448zm-2.715 5.812l1.553 1.26.01-.011.009-.012-1.572-1.237zm-4.666 4.108l-1.063-1.694-.01.006-.01.007 1.083 1.68zm-5.849 2.867l.642 1.895.02-.007.02-.008-.682-1.88zM60.6 88.046l-.372-1.965-.008.002.38 1.963zm-6.266.853l-.152-1.994h-.003l.155 1.994zm-5.362-4.34v2h.037l-.037-2zm9.122-.698l.249 1.985.015-.002.015-.002-.28-1.98zm22.212-15.035l1.938.498.062-.245v-.252h-2zm0-27.9h2v-.91l-.686-.597-1.314 1.508zm-4.108-2.944l-1.073 1.687.01.007.011.007 1.052-1.701zM70 35.114l-.707 1.871.022.009.023.008.662-1.888zm-8.913-2.247l-.327 1.973h.005l.322-1.973zm-23.605.697l-.614-1.903-.009.002.623 1.901zm-7.869 4.883l1.457 1.37-1.457-1.37zm-4.526 8.37l-1.923-.55-.002.008-.002.009 1.927.533zm.557 24.412l-1.861.732.006.016.007.016 1.848-.764zm13.44 12.09l-.552 1.922.019.006.018.005.514-1.933zm9.887 3.812c-4.029 0-7.836-.448-11.427-1.336l-.96 3.883c3.929.972 8.06 1.453 12.387 1.453v-4zm-11.396-1.328c-3.45-.912-6.46-2.438-9.06-4.572l-2.538 3.091c3.064 2.516 6.598 4.296 10.576 5.348l1.022-3.867zm-9.048-4.562c-2.508-2.094-4.562-4.922-6.13-8.557l-3.672 1.585c1.775 4.115 4.177 7.486 7.24 10.043l2.563-3.071zm-6.121-8.538c-1.49-3.555-2.282-8.127-2.282-13.797h-4c0 6.008.834 11.148 2.593 15.344l3.689-1.547zm-2.282-13.797c0-5.644.658-10.296 1.914-14.006l-3.79-1.282c-1.436 4.246-2.124 9.36-2.124 15.288h4zm1.91-13.994c1.308-3.784 3.149-6.748 5.478-8.97l-2.76-2.895c-2.87 2.738-5.021 6.284-6.499 10.559l3.78 1.306zm5.465-8.959c2.393-2.242 5.33-3.877 8.86-4.883l-1.097-3.847c-4.084 1.164-7.599 3.095-10.498 5.812l2.735 2.918zm8.878-4.888c3.633-1.072 7.824-1.623 12.594-1.623v-4c-5.07 0-9.654.585-13.726 1.786l1.132 3.837zm12.594-1.623c4.838 0 8.93.33 12.299.972l.748-3.93c-3.687-.701-8.043-1.042-13.047-1.042v4zm12.327.977c3.436.604 6.261 1.373 8.505 2.285L71.31 29c-2.583-1.05-5.7-1.883-9.32-2.52l-.692 3.94zm8.518 2.29c2.345.936 4.162 1.938 5.503 2.978l2.452-3.16c-1.722-1.337-3.898-2.505-6.473-3.533l-1.482 3.715zm5.56 3.02c1.517 1.093 2.663 2.07 3.476 2.93l2.906-2.75c-1.043-1.103-2.404-2.244-4.044-3.425l-2.338 3.246zm6.93 1.555V7.524h-4v29.76h4zm0-29.76V5.509h-4v2.015h4zM82.3 5.647c.036-.527.123-.934.235-1.244L78.77 3.05a8.611 8.611 0 00-.46 2.321l3.99.276zm.235-1.244c.103-.288.208-.416.264-.469l-2.76-2.894c-.594.567-1 1.265-1.268 2.01l3.765 1.353zm.165-.38c-.056.046-.086.048-.045.036.047-.014.16-.037.365-.037v-4c-.963 0-2.023.212-2.883.93l2.563 3.07zm.32-.001c.205 0 .318.023.365.037.04.012.01.01-.045-.037l2.563-3.07c-.86-.718-1.92-.93-2.883-.93v4zm.46.107c.016.01.063.043.12.185l3.715-1.484A4.335 4.335 0 0085.764.845L83.48 4.129zm.12.185c.087.218.173.57.21 1.1l3.99-.275c-.056-.812-.201-1.597-.486-2.309L83.6 4.314zm.21 1.112c.043.56.065 1.207.065 1.943h4c0-.813-.024-1.561-.075-2.241l-3.99.298zm.065 1.943v76.802h4V7.37h-4zm0 76.802c0 .72-.067 1.221-.156 1.55-.09.331-.172.376-.12.327l2.742 2.912c1.255-1.182 1.534-3.065 1.534-4.789h-4zm-.334 1.933a1.088 1.088 0 01-.294.23.186.186 0 01-.088.022v4c1.304 0 2.396-.592 3.239-1.452l-2.857-2.8zm-.382.252c-.306 0-.487-.082-.659-.241l-2.72 2.933c.942.874 2.107 1.308 3.38 1.308v-4zm-.659-.241c.106.099.037.105-.05-.232-.082-.323-.146-.826-.146-1.557h-4c0 .923.076 1.79.272 2.551.192.749.54 1.555 1.204 2.17l2.72-2.932zm-.196-1.789V73.554h-4v10.772h4zm-3.949-11.22c-.45 1.959-1.236 3.622-2.339 5.024l3.145 2.473c1.497-1.904 2.521-4.117 3.092-6.601l-3.898-.896zm-2.32 5a16.89 16.89 0 01-4.175 3.674l2.127 3.388a20.887 20.887 0 005.155-4.541l-3.106-2.52zm-4.195 3.687c-1.628 1.049-3.442 1.94-5.448 2.668l1.365 3.76c2.264-.822 4.35-1.842 6.25-3.066l-2.167-3.362zm-5.407 2.654a46.022 46.022 0 01-6.207 1.634l.745 3.93a50.03 50.03 0 006.745-1.775l-1.283-3.789zm-6.215 1.636c-2.064.4-4.077.673-6.038.822l.303 3.988a56.795 56.795 0 006.496-.883l-.76-3.927zm-6.041.822a68.006 68.006 0 01-5.207.226v4c1.642 0 3.482-.08 5.517-.238l-.31-3.988zm-5.17-.347c2.868-.053 5.98-.292 9.334-.712l-.498-3.97c-3.239.407-6.208.633-8.91.683l.074 4zm9.364-.716a46.354 46.354 0 009.896-2.511l-1.41-3.744a42.358 42.358 0 01-9.045 2.294l.56 3.96zm9.896-2.511c3.228-1.217 6.105-2.911 8.614-5.09l-2.623-3.02c-2.133 1.852-4.595 3.31-7.401 4.366l1.41 3.743zm8.614-5.09c2.656-2.305 4.434-5.307 5.36-8.917l-3.874-.995c-.744 2.9-2.123 5.168-4.109 6.892l2.623 3.02zm5.423-9.415v-27.9h-4v27.9h4zM81.62 39.42c-1.174-1.023-2.64-2.068-4.37-3.138l-2.104 3.402c1.612.996 2.886 1.914 3.847 2.752l2.627-3.017zm-4.349-3.125c-1.792-1.14-4.008-2.156-6.609-3.067l-1.323 3.775c2.413.845 4.329 1.74 5.786 2.667l2.146-3.375zm-6.563-3.05c-2.619-.99-5.726-1.768-9.298-2.351l-.644 3.948c3.391.553 6.226 1.274 8.528 2.144l1.414-3.742zm-9.294-2.35c-3.571-.591-7.724-.88-12.442-.88v4c4.566 0 8.491.28 11.79.826l.652-3.947zm-12.442-.88c-4.602 0-8.65.533-12.103 1.647l1.228 3.807c2.952-.953 6.564-1.454 10.875-1.454v-4zm-12.111 1.65c-3.446 1.127-6.365 2.926-8.704 5.413l2.914 2.74c1.84-1.957 4.166-3.413 7.034-4.352l-1.245-3.802zm-8.703 5.412c-2.3 2.443-3.947 5.532-4.993 9.19l3.846 1.1c.904-3.16 2.274-5.651 4.06-7.548l-2.913-2.742zm-4.997 9.208c-.99 3.58-1.465 7.8-1.465 12.623h4c0-4.58.453-8.421 1.32-11.557l-3.855-1.066zm-1.465 12.623c0 5.07.669 9.443 2.088 13.054l3.723-1.464c-1.18-3.003-1.811-6.844-1.811-11.59h-4zm2.101 13.086c1.445 3.495 3.424 6.378 5.973 8.577l2.613-3.028c-2-1.726-3.642-4.062-4.89-7.077l-3.696 1.528zm5.973 8.577c2.507 2.164 5.438 3.718 8.763 4.671l1.102-3.845c-2.802-.803-5.21-2.091-7.252-3.854L29.77 80.57zm8.8 4.682c3.291.874 6.761 1.307 10.402 1.307v-4c-3.322 0-6.444-.394-9.374-1.173l-1.028 3.866z" fill="#fff" mask="url(#a)"/></svg>